M48
; DRILL file {KiCad 5.1.5+dfsg1-2build2} date Thu 07 Apr 2022 03:15:56 PM EDT
; FORMAT={-:-/ absolute / inch / decimal}
; #@! TF.CreationDate,2022-04-07T15:15:56-04:00
; #@! TF.GenerationSoftware,Kicad,Pcbnew,5.1.5+dfsg1-2build2
FMAT,2
INCH
T1C0.0315
T2C0.0315
T3C0.0480
T4C0.0780
T5C0.0787
T6C0.0827
T7C0.1575
%
G90
G05
T1
X5.7925Y-3.8665
X5.7925Y-3.9665
X5.7925Y-4.0665
X5.7925Y-4.1665
X5.7925Y-4.2665
X5.7925Y-4.3665
X5.7925Y-4.4665
X5.7925Y-4.5665
X5.7925Y-4.6665
X5.7925Y-4.7665
X5.7925Y-4.8665
X5.7925Y-4.9665
X5.7925Y-5.0665
X5.7925Y-5.1665
X5.7925Y-5.2665
X6.3925Y-3.8665
X6.3925Y-3.9665
X6.3925Y-4.0665
X6.3925Y-4.1665
X6.3925Y-4.2665
X6.3925Y-4.3665
X6.3925Y-4.4665
X6.3925Y-4.5665
X6.3925Y-4.6665
X6.3925Y-4.7665
X6.3925Y-4.8665
X6.3925Y-4.9665
X6.3925Y-5.0665
X6.3925Y-5.1665
X6.3925Y-5.2665
X5.76Y-3.639
X6.06Y-3.639
X5.529Y-4.9755
X5.529Y-5.2755
X5.529Y-3.7416
X5.529Y-4.0416
X5.529Y-2.919
X5.529Y-3.219
X5.529Y-4.5642
X5.529Y-4.8642
X6.151Y-3.638
X6.451Y-3.638
X5.529Y-4.1529
X5.529Y-4.4529
X5.529Y-3.3303
X5.529Y-3.6303
T2
X5.251Y-5.39
X5.626Y-5.39
X5.4385Y-5.39
T3
X5.3858Y-3.0659
X5.3858Y-3.3611
X5.3858Y-3.8518
X5.3858Y-4.1471
X5.3858Y-4.6454
X5.3858Y-4.9406
X5.9932Y-3.0659
X5.9932Y-3.3611
T4
X4.9802Y-4.6454
X4.9802Y-4.9406
X4.9802Y-3.0659
X4.9802Y-3.3611
X6.3988Y-3.0659
X6.3988Y-3.3611
X4.9802Y-3.8518
X4.9802Y-4.1471
T5
X5.69Y-2.7525
X5.9233Y-2.7525
X5.2233Y-2.7525
X6.1567Y-2.7525
X5.4567Y-2.7525
T6
X5.626Y-5.59
X5.4385Y-5.59
X5.251Y-5.59
T7
X6.39Y-2.44
X5.9233Y-2.44
X4.99Y-2.44
X5.69Y-2.44
X5.4567Y-2.44
X5.2233Y-2.44
X6.1567Y-2.44
X6.39Y-5.52
X4.99Y-5.52
T0
M30
