G04 #@! TF.GenerationSoftware,KiCad,Pcbnew,5.1.5+dfsg1-2build2*
G04 #@! TF.CreationDate,2022-04-07T15:16:09-04:00*
G04 #@! TF.ProjectId,traffic-vest_controller,74726166-6669-4632-9d76-6573745f636f,rev?*
G04 #@! TF.SameCoordinates,Original*
G04 #@! TF.FileFunction,Copper,L2,Bot*
G04 #@! TF.FilePolarity,Positive*
%FSLAX46Y46*%
G04 Gerber Fmt 4.6, Leading zero omitted, Abs format (unit mm)*
G04 Created by KiCad (PCBNEW 5.1.5+dfsg1-2build2) date 2022-04-07 15:16:09*
%MOMM*%
%LPD*%
G04 APERTURE LIST*
%ADD10C,0.300000*%
%ADD11O,1.600000X1.600000*%
%ADD12C,1.600000*%
%ADD13C,4.500880*%
%ADD14C,2.970000*%
%ADD15C,1.830000*%
%ADD16R,1.600000X1.600000*%
%ADD17C,1.998980*%
%ADD18C,0.762000*%
%ADD19C,3.810000*%
%ADD20C,0.254000*%
G04 APERTURE END LIST*
D10*
X145226657Y-74941871D02*
X145298085Y-75156157D01*
X145369514Y-75227585D01*
X145512371Y-75299014D01*
X145726657Y-75299014D01*
X145869514Y-75227585D01*
X145940942Y-75156157D01*
X146012371Y-75013300D01*
X146012371Y-74441871D01*
X144512371Y-74441871D01*
X144512371Y-74941871D01*
X144583800Y-75084728D01*
X144655228Y-75156157D01*
X144798085Y-75227585D01*
X144940942Y-75227585D01*
X145083800Y-75156157D01*
X145155228Y-75084728D01*
X145226657Y-74941871D01*
X145226657Y-74441871D01*
X145940942Y-76513300D02*
X146012371Y-76370442D01*
X146012371Y-76084728D01*
X145940942Y-75941871D01*
X145798085Y-75870442D01*
X145226657Y-75870442D01*
X145083800Y-75941871D01*
X145012371Y-76084728D01*
X145012371Y-76370442D01*
X145083800Y-76513300D01*
X145226657Y-76584728D01*
X145369514Y-76584728D01*
X145512371Y-75870442D01*
X145012371Y-77227585D02*
X146012371Y-77227585D01*
X145155228Y-77227585D02*
X145083800Y-77299014D01*
X145012371Y-77441871D01*
X145012371Y-77656157D01*
X145083800Y-77799014D01*
X145226657Y-77870442D01*
X146012371Y-77870442D01*
X145226657Y-80227585D02*
X145298085Y-80441871D01*
X145369514Y-80513300D01*
X145512371Y-80584728D01*
X145726657Y-80584728D01*
X145869514Y-80513300D01*
X145940942Y-80441871D01*
X146012371Y-80299014D01*
X146012371Y-79727585D01*
X144512371Y-79727585D01*
X144512371Y-80227585D01*
X144583800Y-80370442D01*
X144655228Y-80441871D01*
X144798085Y-80513300D01*
X144940942Y-80513300D01*
X145083800Y-80441871D01*
X145155228Y-80370442D01*
X145226657Y-80227585D01*
X145226657Y-79727585D01*
X145012371Y-81870442D02*
X146012371Y-81870442D01*
X145012371Y-81227585D02*
X145798085Y-81227585D01*
X145940942Y-81299014D01*
X146012371Y-81441871D01*
X146012371Y-81656157D01*
X145940942Y-81799014D01*
X145869514Y-81870442D01*
X145940942Y-83227585D02*
X146012371Y-83084728D01*
X146012371Y-82799014D01*
X145940942Y-82656157D01*
X145869514Y-82584728D01*
X145726657Y-82513300D01*
X145298085Y-82513300D01*
X145155228Y-82584728D01*
X145083800Y-82656157D01*
X145012371Y-82799014D01*
X145012371Y-83084728D01*
X145083800Y-83227585D01*
X146012371Y-83870442D02*
X144512371Y-83870442D01*
X145440942Y-84013300D02*
X146012371Y-84441871D01*
X145012371Y-84441871D02*
X145583800Y-83870442D01*
X146012371Y-85299014D02*
X145940942Y-85156157D01*
X145798085Y-85084728D01*
X144512371Y-85084728D01*
X145940942Y-86441871D02*
X146012371Y-86299014D01*
X146012371Y-86013300D01*
X145940942Y-85870442D01*
X145798085Y-85799014D01*
X145226657Y-85799014D01*
X145083800Y-85870442D01*
X145012371Y-86013300D01*
X145012371Y-86299014D01*
X145083800Y-86441871D01*
X145226657Y-86513300D01*
X145369514Y-86513300D01*
X145512371Y-85799014D01*
X145012371Y-87013300D02*
X146012371Y-87370442D01*
X145012371Y-87727585D02*
X146012371Y-87370442D01*
X146369514Y-87227585D01*
X146440942Y-87156157D01*
X146512371Y-87013300D01*
X147776657Y-75727585D02*
X147776657Y-76227585D01*
X148562371Y-76441871D02*
X148562371Y-75727585D01*
X147062371Y-75727585D01*
X147062371Y-76441871D01*
X148562371Y-77799014D02*
X148562371Y-77084728D01*
X147062371Y-77084728D01*
X147062371Y-78084728D02*
X147062371Y-78941871D01*
X148562371Y-78513300D02*
X147062371Y-78513300D01*
X147990942Y-79441871D02*
X147990942Y-80584728D01*
X147205228Y-81227585D02*
X147133800Y-81299014D01*
X147062371Y-81441871D01*
X147062371Y-81799014D01*
X147133800Y-81941871D01*
X147205228Y-82013300D01*
X147348085Y-82084728D01*
X147490942Y-82084728D01*
X147705228Y-82013300D01*
X148562371Y-81156157D01*
X148562371Y-82084728D01*
X147062371Y-82584728D02*
X147062371Y-83584728D01*
X148562371Y-82941871D01*
X147205228Y-84084728D02*
X147133800Y-84156157D01*
X147062371Y-84299014D01*
X147062371Y-84656157D01*
X147133800Y-84799014D01*
X147205228Y-84870442D01*
X147348085Y-84941871D01*
X147490942Y-84941871D01*
X147705228Y-84870442D01*
X148562371Y-84013300D01*
X148562371Y-84941871D01*
X147062371Y-85870442D02*
X147062371Y-86013300D01*
X147133800Y-86156157D01*
X147205228Y-86227585D01*
X147348085Y-86299014D01*
X147633800Y-86370442D01*
X147990942Y-86370442D01*
X148276657Y-86299014D01*
X148419514Y-86227585D01*
X148490942Y-86156157D01*
X148562371Y-86013300D01*
X148562371Y-85870442D01*
X148490942Y-85727585D01*
X148419514Y-85656157D01*
X148276657Y-85584728D01*
X147990942Y-85513300D01*
X147633800Y-85513300D01*
X147348085Y-85584728D01*
X147205228Y-85656157D01*
X147133800Y-85727585D01*
X147062371Y-85870442D01*
D11*
X140436600Y-74142600D03*
D12*
X140436600Y-81762600D03*
D11*
X140436600Y-92209620D03*
D12*
X140436600Y-84589620D03*
D11*
X140436600Y-133997700D03*
D12*
X140436600Y-126377700D03*
D11*
X140436600Y-115930680D03*
D12*
X140436600Y-123550680D03*
D11*
X140436600Y-113103660D03*
D12*
X140436600Y-105483660D03*
D11*
X140436600Y-95036640D03*
D12*
X140436600Y-102656640D03*
D11*
X156235400Y-92405200D03*
D12*
X163855400Y-92405200D03*
D11*
X146304000Y-92430600D03*
D12*
X153924000Y-92430600D03*
D13*
X150452664Y-69913500D03*
X156379330Y-69913500D03*
X138599332Y-69913500D03*
X144525998Y-69913500D03*
X132672666Y-69913500D03*
D14*
X126498200Y-77872900D03*
X126498200Y-85372900D03*
D15*
X136798200Y-85372900D03*
X136798200Y-77872900D03*
D14*
X162528400Y-85372900D03*
X162528400Y-77872900D03*
D15*
X152228400Y-77872900D03*
X152228400Y-85372900D03*
D14*
X126498200Y-117992200D03*
X126498200Y-125492200D03*
D15*
X136798200Y-125492200D03*
X136798200Y-117992200D03*
D14*
X126498200Y-97835550D03*
X126498200Y-105335550D03*
D15*
X136798200Y-105335550D03*
X136798200Y-97835550D03*
D16*
X147129500Y-98209100D03*
D11*
X162369500Y-131229100D03*
X147129500Y-100749100D03*
X162369500Y-128689100D03*
X147129500Y-103289100D03*
X162369500Y-126149100D03*
X147129500Y-105829100D03*
X162369500Y-123609100D03*
X147129500Y-108369100D03*
X162369500Y-121069100D03*
X147129500Y-110909100D03*
X162369500Y-118529100D03*
X147129500Y-113449100D03*
X162369500Y-115989100D03*
X147129500Y-115989100D03*
X162369500Y-113449100D03*
X147129500Y-118529100D03*
X162369500Y-110909100D03*
X147129500Y-121069100D03*
X162369500Y-108369100D03*
X147129500Y-123609100D03*
X162369500Y-105829100D03*
X147129500Y-126149100D03*
X162369500Y-103289100D03*
X147129500Y-128689100D03*
X162369500Y-100749100D03*
X147129500Y-131229100D03*
X162369500Y-98209100D03*
X147129500Y-133769100D03*
X162369500Y-133769100D03*
D17*
X133375400Y-136906000D03*
X138137900Y-136906000D03*
X142900400Y-136906000D03*
D18*
X144792700Y-133769100D02*
X147129500Y-133769100D01*
X141922500Y-130898900D02*
X144792700Y-133769100D01*
X139217400Y-130898900D02*
X141922500Y-130898900D01*
X137083800Y-133032500D02*
X139217400Y-130898900D01*
X137083800Y-135851900D02*
X137083800Y-133032500D01*
X138137900Y-136906000D02*
X137083800Y-135851900D01*
X162369500Y-97129600D02*
X162369500Y-98209100D01*
X157772100Y-92532200D02*
X162369500Y-97129600D01*
X154025600Y-92532200D02*
X157772100Y-92532200D01*
X153924000Y-92430600D02*
X154025600Y-92532200D01*
X140436600Y-123550680D02*
X140436600Y-126377700D01*
X140436600Y-122419310D02*
X140436600Y-123550680D01*
X140436600Y-120700800D02*
X140436600Y-122419310D01*
X140462000Y-120675400D02*
X140436600Y-120700800D01*
X140462000Y-120116600D02*
X140462000Y-120675400D01*
X147129500Y-113449100D02*
X140462000Y-120116600D01*
X140436600Y-102656640D02*
X140436600Y-105483660D01*
X145249900Y-109029500D02*
X147129500Y-110909100D01*
X145211800Y-109029500D02*
X145249900Y-109029500D01*
X145211800Y-108991400D02*
X145211800Y-109029500D01*
X141704060Y-105483660D02*
X145211800Y-108991400D01*
X140436600Y-105483660D02*
X141704060Y-105483660D01*
X140436600Y-81762600D02*
X140436600Y-84589620D01*
X142367000Y-86520020D02*
X140436600Y-84589620D01*
X142367000Y-103606600D02*
X142367000Y-86520020D01*
X147129500Y-108369100D02*
X142367000Y-103606600D01*
X140436600Y-89011300D02*
X140436600Y-92209620D01*
X136798200Y-85372900D02*
X140436600Y-89011300D01*
X140436600Y-118389400D02*
X140436600Y-115930680D01*
X136798200Y-122027800D02*
X140436600Y-118389400D01*
X136798200Y-125492200D02*
X136798200Y-122027800D01*
X140436600Y-98397219D02*
X140436600Y-95036640D01*
X136798200Y-102035619D02*
X140436600Y-98397219D01*
X136798200Y-105335550D02*
X136798200Y-102035619D01*
D19*
X146304000Y-92430600D02*
X147435370Y-92430600D01*
X150750499Y-91057501D02*
X152228400Y-89579600D01*
X152228400Y-89579600D02*
X152228400Y-85372900D01*
X150750499Y-93752800D02*
X150750499Y-91057501D01*
X152514300Y-95516601D02*
X150750499Y-93752800D01*
X152514300Y-134899400D02*
X152514300Y-95516601D01*
X150507700Y-136906000D02*
X152514300Y-134899400D01*
X142900400Y-136906000D02*
X150507700Y-136906000D01*
X149428299Y-92430600D02*
X146304000Y-92430600D01*
X150750499Y-93752800D02*
X149428299Y-92430600D01*
X156379330Y-73721970D02*
X152228400Y-77872900D01*
X156379330Y-69913500D02*
X156379330Y-73721970D01*
D18*
X126498200Y-77872900D02*
X126498200Y-72028200D01*
X128612900Y-69913500D02*
X132672666Y-69913500D01*
X126498200Y-72028200D02*
X128612900Y-69913500D01*
X142275559Y-72163939D02*
X144525998Y-69913500D01*
X142275559Y-75643741D02*
X142275559Y-72163939D01*
X129888211Y-88031089D02*
X142275559Y-75643741D01*
X129888211Y-114602189D02*
X129888211Y-88031089D01*
X126498200Y-117992200D02*
X129888211Y-114602189D01*
X136348893Y-72163939D02*
X138599332Y-69913500D01*
X136348893Y-73404307D02*
X136348893Y-72163939D01*
X128739889Y-81013311D02*
X136348893Y-73404307D01*
X128739889Y-81296250D02*
X128739889Y-81013311D01*
X128745201Y-81301562D02*
X128739889Y-81296250D01*
X128745201Y-95588549D02*
X128745201Y-81301562D01*
X126498200Y-97835550D02*
X128745201Y-95588549D01*
D20*
G36*
X165939001Y-143841000D02*
G01*
X123113000Y-143841000D01*
X123113000Y-139948475D01*
X124111000Y-139948475D01*
X124111000Y-140467525D01*
X124212261Y-140976601D01*
X124410893Y-141456141D01*
X124699262Y-141887715D01*
X125066285Y-142254738D01*
X125497859Y-142543107D01*
X125977399Y-142741739D01*
X126486475Y-142843000D01*
X127005525Y-142843000D01*
X127514601Y-142741739D01*
X127994141Y-142543107D01*
X128425715Y-142254738D01*
X128792738Y-141887715D01*
X128837955Y-141820042D01*
X131690400Y-141820042D01*
X131690400Y-142151958D01*
X131755154Y-142477496D01*
X131882172Y-142784147D01*
X132066575Y-143060125D01*
X132301275Y-143294825D01*
X132577253Y-143479228D01*
X132883904Y-143606246D01*
X133209442Y-143671000D01*
X133541358Y-143671000D01*
X133866896Y-143606246D01*
X134173547Y-143479228D01*
X134449525Y-143294825D01*
X134684225Y-143060125D01*
X134868628Y-142784147D01*
X134995646Y-142477496D01*
X135060400Y-142151958D01*
X135060400Y-141820042D01*
X136452900Y-141820042D01*
X136452900Y-142151958D01*
X136517654Y-142477496D01*
X136644672Y-142784147D01*
X136829075Y-143060125D01*
X137063775Y-143294825D01*
X137339753Y-143479228D01*
X137646404Y-143606246D01*
X137971942Y-143671000D01*
X138303858Y-143671000D01*
X138629396Y-143606246D01*
X138936047Y-143479228D01*
X139212025Y-143294825D01*
X139446725Y-143060125D01*
X139631128Y-142784147D01*
X139758146Y-142477496D01*
X139822900Y-142151958D01*
X139822900Y-141820042D01*
X141215400Y-141820042D01*
X141215400Y-142151958D01*
X141280154Y-142477496D01*
X141407172Y-142784147D01*
X141591575Y-143060125D01*
X141826275Y-143294825D01*
X142102253Y-143479228D01*
X142408904Y-143606246D01*
X142734442Y-143671000D01*
X143066358Y-143671000D01*
X143391896Y-143606246D01*
X143698547Y-143479228D01*
X143974525Y-143294825D01*
X144209225Y-143060125D01*
X144393628Y-142784147D01*
X144520646Y-142477496D01*
X144585400Y-142151958D01*
X144585400Y-141820042D01*
X144520646Y-141494504D01*
X144393628Y-141187853D01*
X144209225Y-140911875D01*
X143974525Y-140677175D01*
X143698547Y-140492772D01*
X143391896Y-140365754D01*
X143066358Y-140301000D01*
X142734442Y-140301000D01*
X142408904Y-140365754D01*
X142102253Y-140492772D01*
X141826275Y-140677175D01*
X141591575Y-140911875D01*
X141407172Y-141187853D01*
X141280154Y-141494504D01*
X141215400Y-141820042D01*
X139822900Y-141820042D01*
X139758146Y-141494504D01*
X139631128Y-141187853D01*
X139446725Y-140911875D01*
X139212025Y-140677175D01*
X138936047Y-140492772D01*
X138629396Y-140365754D01*
X138303858Y-140301000D01*
X137971942Y-140301000D01*
X137646404Y-140365754D01*
X137339753Y-140492772D01*
X137063775Y-140677175D01*
X136829075Y-140911875D01*
X136644672Y-141187853D01*
X136517654Y-141494504D01*
X136452900Y-141820042D01*
X135060400Y-141820042D01*
X134995646Y-141494504D01*
X134868628Y-141187853D01*
X134684225Y-140911875D01*
X134449525Y-140677175D01*
X134173547Y-140492772D01*
X133866896Y-140365754D01*
X133541358Y-140301000D01*
X133209442Y-140301000D01*
X132883904Y-140365754D01*
X132577253Y-140492772D01*
X132301275Y-140677175D01*
X132066575Y-140911875D01*
X131882172Y-141187853D01*
X131755154Y-141494504D01*
X131690400Y-141820042D01*
X128837955Y-141820042D01*
X129081107Y-141456141D01*
X129279739Y-140976601D01*
X129381000Y-140467525D01*
X129381000Y-139948475D01*
X159671000Y-139948475D01*
X159671000Y-140467525D01*
X159772261Y-140976601D01*
X159970893Y-141456141D01*
X160259262Y-141887715D01*
X160626285Y-142254738D01*
X161057859Y-142543107D01*
X161537399Y-142741739D01*
X162046475Y-142843000D01*
X162565525Y-142843000D01*
X163074601Y-142741739D01*
X163554141Y-142543107D01*
X163985715Y-142254738D01*
X164352738Y-141887715D01*
X164641107Y-141456141D01*
X164839739Y-140976601D01*
X164941000Y-140467525D01*
X164941000Y-139948475D01*
X164839739Y-139439399D01*
X164641107Y-138959859D01*
X164352738Y-138528285D01*
X163985715Y-138161262D01*
X163554141Y-137872893D01*
X163074601Y-137674261D01*
X162565525Y-137573000D01*
X162046475Y-137573000D01*
X161537399Y-137674261D01*
X161057859Y-137872893D01*
X160626285Y-138161262D01*
X160259262Y-138528285D01*
X159970893Y-138959859D01*
X159772261Y-139439399D01*
X159671000Y-139948475D01*
X129381000Y-139948475D01*
X129279739Y-139439399D01*
X129081107Y-138959859D01*
X128792738Y-138528285D01*
X128425715Y-138161262D01*
X128245806Y-138041050D01*
X132419955Y-138041050D01*
X132515658Y-138305399D01*
X132805187Y-138446238D01*
X133116629Y-138527885D01*
X133438015Y-138547205D01*
X133756995Y-138503454D01*
X134061311Y-138398314D01*
X134235142Y-138305399D01*
X134330845Y-138041050D01*
X133375400Y-137085605D01*
X132419955Y-138041050D01*
X128245806Y-138041050D01*
X127994141Y-137872893D01*
X127514601Y-137674261D01*
X127005525Y-137573000D01*
X126486475Y-137573000D01*
X125977399Y-137674261D01*
X125497859Y-137872893D01*
X125066285Y-138161262D01*
X124699262Y-138528285D01*
X124410893Y-138959859D01*
X124212261Y-139439399D01*
X124111000Y-139948475D01*
X123113000Y-139948475D01*
X123113000Y-136968615D01*
X131734195Y-136968615D01*
X131777946Y-137287595D01*
X131883086Y-137591911D01*
X131976001Y-137765742D01*
X132240350Y-137861445D01*
X133195795Y-136906000D01*
X133555005Y-136906000D01*
X134510450Y-137861445D01*
X134774799Y-137765742D01*
X134915638Y-137476213D01*
X134997285Y-137164771D01*
X135016605Y-136843385D01*
X134972854Y-136524405D01*
X134867714Y-136220089D01*
X134774799Y-136046258D01*
X134510450Y-135950555D01*
X133555005Y-136906000D01*
X133195795Y-136906000D01*
X132240350Y-135950555D01*
X131976001Y-136046258D01*
X131835162Y-136335787D01*
X131753515Y-136647229D01*
X131734195Y-136968615D01*
X123113000Y-136968615D01*
X123113000Y-135770950D01*
X132419955Y-135770950D01*
X133375400Y-136726395D01*
X134330845Y-135770950D01*
X134235142Y-135506601D01*
X133945613Y-135365762D01*
X133634171Y-135284115D01*
X133312785Y-135264795D01*
X132993805Y-135308546D01*
X132689489Y-135413686D01*
X132515658Y-135506601D01*
X132419955Y-135770950D01*
X123113000Y-135770950D01*
X123113000Y-125283398D01*
X124378200Y-125283398D01*
X124378200Y-125701002D01*
X124459670Y-126110581D01*
X124619480Y-126496397D01*
X124851488Y-126843621D01*
X125146779Y-127138912D01*
X125494003Y-127370920D01*
X125879819Y-127530730D01*
X126289398Y-127612200D01*
X126707002Y-127612200D01*
X127116581Y-127530730D01*
X127502397Y-127370920D01*
X127849621Y-127138912D01*
X128144912Y-126843621D01*
X128376920Y-126496397D01*
X128536730Y-126110581D01*
X128618200Y-125701002D01*
X128618200Y-125283398D01*
X128536730Y-124873819D01*
X128376920Y-124488003D01*
X128144912Y-124140779D01*
X127849621Y-123845488D01*
X127502397Y-123613480D01*
X127116581Y-123453670D01*
X126707002Y-123372200D01*
X126289398Y-123372200D01*
X125879819Y-123453670D01*
X125494003Y-123613480D01*
X125146779Y-123845488D01*
X124851488Y-124140779D01*
X124619480Y-124488003D01*
X124459670Y-124873819D01*
X124378200Y-125283398D01*
X123113000Y-125283398D01*
X123113000Y-105126748D01*
X124378200Y-105126748D01*
X124378200Y-105544352D01*
X124459670Y-105953931D01*
X124619480Y-106339747D01*
X124851488Y-106686971D01*
X125146779Y-106982262D01*
X125494003Y-107214270D01*
X125879819Y-107374080D01*
X126289398Y-107455550D01*
X126707002Y-107455550D01*
X127116581Y-107374080D01*
X127502397Y-107214270D01*
X127849621Y-106982262D01*
X128144912Y-106686971D01*
X128376920Y-106339747D01*
X128536730Y-105953931D01*
X128618200Y-105544352D01*
X128618200Y-105126748D01*
X128536730Y-104717169D01*
X128376920Y-104331353D01*
X128144912Y-103984129D01*
X127849621Y-103688838D01*
X127502397Y-103456830D01*
X127116581Y-103297020D01*
X126707002Y-103215550D01*
X126289398Y-103215550D01*
X125879819Y-103297020D01*
X125494003Y-103456830D01*
X125146779Y-103688838D01*
X124851488Y-103984129D01*
X124619480Y-104331353D01*
X124459670Y-104717169D01*
X124378200Y-105126748D01*
X123113000Y-105126748D01*
X123113000Y-85164098D01*
X124378200Y-85164098D01*
X124378200Y-85581702D01*
X124459670Y-85991281D01*
X124619480Y-86377097D01*
X124851488Y-86724321D01*
X125146779Y-87019612D01*
X125494003Y-87251620D01*
X125879819Y-87411430D01*
X126289398Y-87492900D01*
X126707002Y-87492900D01*
X127116581Y-87411430D01*
X127502397Y-87251620D01*
X127729202Y-87100074D01*
X127729201Y-95167708D01*
X127102659Y-95794251D01*
X126707002Y-95715550D01*
X126289398Y-95715550D01*
X125879819Y-95797020D01*
X125494003Y-95956830D01*
X125146779Y-96188838D01*
X124851488Y-96484129D01*
X124619480Y-96831353D01*
X124459670Y-97217169D01*
X124378200Y-97626748D01*
X124378200Y-98044352D01*
X124459670Y-98453931D01*
X124619480Y-98839747D01*
X124851488Y-99186971D01*
X125146779Y-99482262D01*
X125494003Y-99714270D01*
X125879819Y-99874080D01*
X126289398Y-99955550D01*
X126707002Y-99955550D01*
X127116581Y-99874080D01*
X127502397Y-99714270D01*
X127849621Y-99482262D01*
X128144912Y-99186971D01*
X128376920Y-98839747D01*
X128536730Y-98453931D01*
X128618200Y-98044352D01*
X128618200Y-97626748D01*
X128539499Y-97231091D01*
X128872212Y-96898379D01*
X128872211Y-114181348D01*
X127102659Y-115950901D01*
X126707002Y-115872200D01*
X126289398Y-115872200D01*
X125879819Y-115953670D01*
X125494003Y-116113480D01*
X125146779Y-116345488D01*
X124851488Y-116640779D01*
X124619480Y-116988003D01*
X124459670Y-117373819D01*
X124378200Y-117783398D01*
X124378200Y-118201002D01*
X124459670Y-118610581D01*
X124619480Y-118996397D01*
X124851488Y-119343621D01*
X125146779Y-119638912D01*
X125494003Y-119870920D01*
X125879819Y-120030730D01*
X126289398Y-120112200D01*
X126707002Y-120112200D01*
X127116581Y-120030730D01*
X127502397Y-119870920D01*
X127849621Y-119638912D01*
X128144912Y-119343621D01*
X128376920Y-118996397D01*
X128536730Y-118610581D01*
X128618200Y-118201002D01*
X128618200Y-117839538D01*
X135248200Y-117839538D01*
X135248200Y-118144862D01*
X135307765Y-118444318D01*
X135424608Y-118726400D01*
X135594236Y-118980268D01*
X135810132Y-119196164D01*
X136064000Y-119365792D01*
X136346082Y-119482635D01*
X136645538Y-119542200D01*
X136950862Y-119542200D01*
X137250318Y-119482635D01*
X137532400Y-119365792D01*
X137786268Y-119196164D01*
X138002164Y-118980268D01*
X138171792Y-118726400D01*
X138288635Y-118444318D01*
X138348200Y-118144862D01*
X138348200Y-117839538D01*
X138288635Y-117540082D01*
X138171792Y-117258000D01*
X138002164Y-117004132D01*
X137786268Y-116788236D01*
X137532400Y-116618608D01*
X137250318Y-116501765D01*
X136950862Y-116442200D01*
X136645538Y-116442200D01*
X136346082Y-116501765D01*
X136064000Y-116618608D01*
X135810132Y-116788236D01*
X135594236Y-117004132D01*
X135424608Y-117258000D01*
X135307765Y-117540082D01*
X135248200Y-117839538D01*
X128618200Y-117839538D01*
X128618200Y-117783398D01*
X128539499Y-117387741D01*
X130571344Y-115355897D01*
X130610107Y-115324085D01*
X130737071Y-115169379D01*
X130831413Y-114992876D01*
X130889509Y-114801360D01*
X130904211Y-114652091D01*
X130904211Y-114652090D01*
X130909126Y-114602189D01*
X130904211Y-114552287D01*
X130904211Y-112754620D01*
X139044691Y-112754620D01*
X139165976Y-112976660D01*
X140309600Y-112976660D01*
X140309600Y-111833745D01*
X140563600Y-111833745D01*
X140563600Y-112976660D01*
X141707224Y-112976660D01*
X141828509Y-112754620D01*
X141733670Y-112489779D01*
X141588985Y-112248529D01*
X141400014Y-112040141D01*
X141174020Y-111872623D01*
X140919687Y-111752414D01*
X140785639Y-111711756D01*
X140563600Y-111833745D01*
X140309600Y-111833745D01*
X140087561Y-111711756D01*
X139953513Y-111752414D01*
X139699180Y-111872623D01*
X139473186Y-112040141D01*
X139284215Y-112248529D01*
X139139530Y-112489779D01*
X139044691Y-112754620D01*
X130904211Y-112754620D01*
X130904211Y-97682888D01*
X135248200Y-97682888D01*
X135248200Y-97988212D01*
X135307765Y-98287668D01*
X135424608Y-98569750D01*
X135594236Y-98823618D01*
X135810132Y-99039514D01*
X136064000Y-99209142D01*
X136346082Y-99325985D01*
X136645538Y-99385550D01*
X136950862Y-99385550D01*
X137250318Y-99325985D01*
X137532400Y-99209142D01*
X137786268Y-99039514D01*
X138002164Y-98823618D01*
X138171792Y-98569750D01*
X138288635Y-98287668D01*
X138348200Y-97988212D01*
X138348200Y-97682888D01*
X138288635Y-97383432D01*
X138171792Y-97101350D01*
X138002164Y-96847482D01*
X137786268Y-96631586D01*
X137532400Y-96461958D01*
X137250318Y-96345115D01*
X136950862Y-96285550D01*
X136645538Y-96285550D01*
X136346082Y-96345115D01*
X136064000Y-96461958D01*
X135810132Y-96631586D01*
X135594236Y-96847482D01*
X135424608Y-97101350D01*
X135307765Y-97383432D01*
X135248200Y-97682888D01*
X130904211Y-97682888D01*
X130904211Y-88451929D01*
X134135902Y-85220238D01*
X135248200Y-85220238D01*
X135248200Y-85525562D01*
X135307765Y-85825018D01*
X135424608Y-86107100D01*
X135594236Y-86360968D01*
X135810132Y-86576864D01*
X136064000Y-86746492D01*
X136346082Y-86863335D01*
X136645538Y-86922900D01*
X136911360Y-86922900D01*
X139420600Y-89432141D01*
X139420601Y-91196223D01*
X139321963Y-91294861D01*
X139164920Y-91529893D01*
X139056747Y-91791046D01*
X139001600Y-92068285D01*
X139001600Y-92350955D01*
X139056747Y-92628194D01*
X139164920Y-92889347D01*
X139321963Y-93124379D01*
X139521841Y-93324257D01*
X139756873Y-93481300D01*
X140018026Y-93589473D01*
X140187229Y-93623130D01*
X140018026Y-93656787D01*
X139756873Y-93764960D01*
X139521841Y-93922003D01*
X139321963Y-94121881D01*
X139164920Y-94356913D01*
X139056747Y-94618066D01*
X139001600Y-94895305D01*
X139001600Y-95177975D01*
X139056747Y-95455214D01*
X139164920Y-95716367D01*
X139321963Y-95951399D01*
X139420601Y-96050037D01*
X139420600Y-97976378D01*
X136115068Y-101281911D01*
X136076305Y-101313723D01*
X135949341Y-101468429D01*
X135859920Y-101635725D01*
X135854999Y-101644932D01*
X135796902Y-101836449D01*
X135777285Y-102035619D01*
X135782201Y-102085530D01*
X135782200Y-104159518D01*
X135594236Y-104347482D01*
X135424608Y-104601350D01*
X135307765Y-104883432D01*
X135248200Y-105182888D01*
X135248200Y-105488212D01*
X135307765Y-105787668D01*
X135424608Y-106069750D01*
X135594236Y-106323618D01*
X135810132Y-106539514D01*
X136064000Y-106709142D01*
X136346082Y-106825985D01*
X136645538Y-106885550D01*
X136950862Y-106885550D01*
X137250318Y-106825985D01*
X137532400Y-106709142D01*
X137786268Y-106539514D01*
X138002164Y-106323618D01*
X138171792Y-106069750D01*
X138288635Y-105787668D01*
X138348200Y-105488212D01*
X138348200Y-105182888D01*
X138288635Y-104883432D01*
X138171792Y-104601350D01*
X138002164Y-104347482D01*
X137814200Y-104159518D01*
X137814200Y-102456459D01*
X141119733Y-99150927D01*
X141158496Y-99119115D01*
X141285460Y-98964409D01*
X141351000Y-98841791D01*
X141351000Y-101541763D01*
X141116327Y-101384960D01*
X140855174Y-101276787D01*
X140577935Y-101221640D01*
X140295265Y-101221640D01*
X140018026Y-101276787D01*
X139756873Y-101384960D01*
X139521841Y-101542003D01*
X139321963Y-101741881D01*
X139164920Y-101976913D01*
X139056747Y-102238066D01*
X139001600Y-102515305D01*
X139001600Y-102797975D01*
X139056747Y-103075214D01*
X139164920Y-103336367D01*
X139321963Y-103571399D01*
X139420600Y-103670036D01*
X139420601Y-104470263D01*
X139321963Y-104568901D01*
X139164920Y-104803933D01*
X139056747Y-105065086D01*
X139001600Y-105342325D01*
X139001600Y-105624995D01*
X139056747Y-105902234D01*
X139164920Y-106163387D01*
X139321963Y-106398419D01*
X139521841Y-106598297D01*
X139756873Y-106755340D01*
X140018026Y-106863513D01*
X140295265Y-106918660D01*
X140577935Y-106918660D01*
X140855174Y-106863513D01*
X141116327Y-106755340D01*
X141351359Y-106598297D01*
X141366608Y-106583048D01*
X144343065Y-109559506D01*
X144362940Y-109596690D01*
X144489904Y-109751396D01*
X144644610Y-109878360D01*
X144681796Y-109898236D01*
X145694500Y-110910941D01*
X145694500Y-111050435D01*
X145749647Y-111327674D01*
X145857820Y-111588827D01*
X146014863Y-111823859D01*
X146214741Y-112023737D01*
X146447259Y-112179100D01*
X146214741Y-112334463D01*
X146014863Y-112534341D01*
X145857820Y-112769373D01*
X145749647Y-113030526D01*
X145694500Y-113307765D01*
X145694500Y-113447259D01*
X141452600Y-117689160D01*
X141452600Y-116944076D01*
X141551237Y-116845439D01*
X141708280Y-116610407D01*
X141816453Y-116349254D01*
X141871600Y-116072015D01*
X141871600Y-115789345D01*
X141816453Y-115512106D01*
X141708280Y-115250953D01*
X141551237Y-115015921D01*
X141351359Y-114816043D01*
X141116327Y-114659000D01*
X140855174Y-114550827D01*
X140577935Y-114495680D01*
X140563602Y-114495680D01*
X140563602Y-114373576D01*
X140785639Y-114495564D01*
X140919687Y-114454906D01*
X141174020Y-114334697D01*
X141400014Y-114167179D01*
X141588985Y-113958791D01*
X141733670Y-113717541D01*
X141828509Y-113452700D01*
X141707224Y-113230660D01*
X140563600Y-113230660D01*
X140563600Y-113250660D01*
X140309600Y-113250660D01*
X140309600Y-113230660D01*
X139165976Y-113230660D01*
X139044691Y-113452700D01*
X139139530Y-113717541D01*
X139284215Y-113958791D01*
X139473186Y-114167179D01*
X139699180Y-114334697D01*
X139953513Y-114454906D01*
X140087561Y-114495564D01*
X140309598Y-114373576D01*
X140309598Y-114495680D01*
X140295265Y-114495680D01*
X140018026Y-114550827D01*
X139756873Y-114659000D01*
X139521841Y-114816043D01*
X139321963Y-115015921D01*
X139164920Y-115250953D01*
X139056747Y-115512106D01*
X139001600Y-115789345D01*
X139001600Y-116072015D01*
X139056747Y-116349254D01*
X139164920Y-116610407D01*
X139321963Y-116845439D01*
X139420601Y-116944077D01*
X139420600Y-117968559D01*
X136115068Y-121274092D01*
X136076305Y-121305904D01*
X135949341Y-121460610D01*
X135915320Y-121524260D01*
X135854999Y-121637113D01*
X135796902Y-121828630D01*
X135777285Y-122027800D01*
X135782201Y-122077712D01*
X135782200Y-124316168D01*
X135594236Y-124504132D01*
X135424608Y-124758000D01*
X135307765Y-125040082D01*
X135248200Y-125339538D01*
X135248200Y-125644862D01*
X135307765Y-125944318D01*
X135424608Y-126226400D01*
X135594236Y-126480268D01*
X135810132Y-126696164D01*
X136064000Y-126865792D01*
X136346082Y-126982635D01*
X136645538Y-127042200D01*
X136950862Y-127042200D01*
X137250318Y-126982635D01*
X137532400Y-126865792D01*
X137786268Y-126696164D01*
X138002164Y-126480268D01*
X138171792Y-126226400D01*
X138288635Y-125944318D01*
X138348200Y-125644862D01*
X138348200Y-125339538D01*
X138288635Y-125040082D01*
X138171792Y-124758000D01*
X138002164Y-124504132D01*
X137814200Y-124316168D01*
X137814200Y-122448640D01*
X139420600Y-120842240D01*
X139420601Y-122369399D01*
X139420600Y-122369409D01*
X139420600Y-122537284D01*
X139321963Y-122635921D01*
X139164920Y-122870953D01*
X139056747Y-123132106D01*
X139001600Y-123409345D01*
X139001600Y-123692015D01*
X139056747Y-123969254D01*
X139164920Y-124230407D01*
X139321963Y-124465439D01*
X139420600Y-124564076D01*
X139420601Y-125364303D01*
X139321963Y-125462941D01*
X139164920Y-125697973D01*
X139056747Y-125959126D01*
X139001600Y-126236365D01*
X139001600Y-126519035D01*
X139056747Y-126796274D01*
X139164920Y-127057427D01*
X139321963Y-127292459D01*
X139521841Y-127492337D01*
X139756873Y-127649380D01*
X140018026Y-127757553D01*
X140295265Y-127812700D01*
X140577935Y-127812700D01*
X140855174Y-127757553D01*
X141116327Y-127649380D01*
X141351359Y-127492337D01*
X141551237Y-127292459D01*
X141708280Y-127057427D01*
X141816453Y-126796274D01*
X141871600Y-126519035D01*
X141871600Y-126236365D01*
X141816453Y-125959126D01*
X141708280Y-125697973D01*
X141551237Y-125462941D01*
X141452600Y-125364304D01*
X141452600Y-124564076D01*
X141551237Y-124465439D01*
X141708280Y-124230407D01*
X141816453Y-123969254D01*
X141871600Y-123692015D01*
X141871600Y-123409345D01*
X141816453Y-123132106D01*
X141708280Y-122870953D01*
X141551237Y-122635921D01*
X141452600Y-122537284D01*
X141452600Y-120909837D01*
X141463298Y-120874570D01*
X141478000Y-120725301D01*
X141482915Y-120675401D01*
X141478000Y-120625499D01*
X141478000Y-120537440D01*
X145726107Y-116289333D01*
X145749647Y-116407674D01*
X145857820Y-116668827D01*
X146014863Y-116903859D01*
X146214741Y-117103737D01*
X146447259Y-117259100D01*
X146214741Y-117414463D01*
X146014863Y-117614341D01*
X145857820Y-117849373D01*
X145749647Y-118110526D01*
X145694500Y-118387765D01*
X145694500Y-118670435D01*
X145749647Y-118947674D01*
X145857820Y-119208827D01*
X146014863Y-119443859D01*
X146214741Y-119643737D01*
X146447259Y-119799100D01*
X146214741Y-119954463D01*
X146014863Y-120154341D01*
X145857820Y-120389373D01*
X145749647Y-120650526D01*
X145694500Y-120927765D01*
X145694500Y-121210435D01*
X145749647Y-121487674D01*
X145857820Y-121748827D01*
X146014863Y-121983859D01*
X146214741Y-122183737D01*
X146447259Y-122339100D01*
X146214741Y-122494463D01*
X146014863Y-122694341D01*
X145857820Y-122929373D01*
X145749647Y-123190526D01*
X145694500Y-123467765D01*
X145694500Y-123750435D01*
X145749647Y-124027674D01*
X145857820Y-124288827D01*
X146014863Y-124523859D01*
X146214741Y-124723737D01*
X146447259Y-124879100D01*
X146214741Y-125034463D01*
X146014863Y-125234341D01*
X145857820Y-125469373D01*
X145749647Y-125730526D01*
X145694500Y-126007765D01*
X145694500Y-126290435D01*
X145749647Y-126567674D01*
X145857820Y-126828827D01*
X146014863Y-127063859D01*
X146214741Y-127263737D01*
X146447259Y-127419100D01*
X146214741Y-127574463D01*
X146014863Y-127774341D01*
X145857820Y-128009373D01*
X145749647Y-128270526D01*
X145694500Y-128547765D01*
X145694500Y-128830435D01*
X145749647Y-129107674D01*
X145857820Y-129368827D01*
X146014863Y-129603859D01*
X146214741Y-129803737D01*
X146447259Y-129959100D01*
X146214741Y-130114463D01*
X146014863Y-130314341D01*
X145857820Y-130549373D01*
X145749647Y-130810526D01*
X145694500Y-131087765D01*
X145694500Y-131370435D01*
X145749647Y-131647674D01*
X145857820Y-131908827D01*
X146014863Y-132143859D01*
X146214741Y-132343737D01*
X146447259Y-132499100D01*
X146214741Y-132654463D01*
X146116104Y-132753100D01*
X145213541Y-132753100D01*
X142676212Y-130215772D01*
X142644396Y-130177004D01*
X142489690Y-130050040D01*
X142313187Y-129955698D01*
X142121671Y-129897602D01*
X141972402Y-129882900D01*
X141922500Y-129877985D01*
X141872598Y-129882900D01*
X139267301Y-129882900D01*
X139217399Y-129877985D01*
X139018229Y-129897602D01*
X138826713Y-129955698D01*
X138650210Y-130050040D01*
X138495504Y-130177004D01*
X138463692Y-130215767D01*
X136400668Y-132278792D01*
X136361905Y-132310604D01*
X136234941Y-132465310D01*
X136217778Y-132497420D01*
X136140599Y-132641813D01*
X136082502Y-132833330D01*
X136062885Y-133032500D01*
X136067801Y-133082411D01*
X136067800Y-135801998D01*
X136062885Y-135851900D01*
X136067800Y-135901801D01*
X136082502Y-136051070D01*
X136140598Y-136242586D01*
X136234940Y-136419090D01*
X136361904Y-136573796D01*
X136400672Y-136605612D01*
X136509493Y-136714434D01*
X136503410Y-136745017D01*
X136503410Y-137066983D01*
X136566222Y-137382763D01*
X136689433Y-137680222D01*
X136868308Y-137947927D01*
X137095973Y-138175592D01*
X137363678Y-138354467D01*
X137661137Y-138477678D01*
X137976917Y-138540490D01*
X138298883Y-138540490D01*
X138614663Y-138477678D01*
X138912122Y-138354467D01*
X139179827Y-138175592D01*
X139407492Y-137947927D01*
X139586367Y-137680222D01*
X139709578Y-137382763D01*
X139772390Y-137066983D01*
X139772390Y-136745017D01*
X139709578Y-136429237D01*
X139586367Y-136131778D01*
X139407492Y-135864073D01*
X139179827Y-135636408D01*
X138912122Y-135457533D01*
X138614663Y-135334322D01*
X138298883Y-135271510D01*
X138099800Y-135271510D01*
X138099800Y-134346740D01*
X139044691Y-134346740D01*
X139139530Y-134611581D01*
X139284215Y-134852831D01*
X139473186Y-135061219D01*
X139699180Y-135228737D01*
X139953513Y-135348946D01*
X140087561Y-135389604D01*
X140309600Y-135267615D01*
X140309600Y-134124700D01*
X139165976Y-134124700D01*
X139044691Y-134346740D01*
X138099800Y-134346740D01*
X138099800Y-133648660D01*
X139044691Y-133648660D01*
X139165976Y-133870700D01*
X140309600Y-133870700D01*
X140309600Y-132727785D01*
X140563600Y-132727785D01*
X140563600Y-133870700D01*
X141707224Y-133870700D01*
X141828509Y-133648660D01*
X141733670Y-133383819D01*
X141588985Y-133142569D01*
X141400014Y-132934181D01*
X141174020Y-132766663D01*
X140919687Y-132646454D01*
X140785639Y-132605796D01*
X140563600Y-132727785D01*
X140309600Y-132727785D01*
X140087561Y-132605796D01*
X139953513Y-132646454D01*
X139699180Y-132766663D01*
X139473186Y-132934181D01*
X139284215Y-133142569D01*
X139139530Y-133383819D01*
X139044691Y-133648660D01*
X138099800Y-133648660D01*
X138099800Y-133453340D01*
X139638241Y-131914900D01*
X141501660Y-131914900D01*
X143952759Y-134366000D01*
X142775629Y-134366000D01*
X142402473Y-134402753D01*
X141923681Y-134547992D01*
X141700151Y-134667472D01*
X141733670Y-134611581D01*
X141828509Y-134346740D01*
X141707224Y-134124700D01*
X140563600Y-134124700D01*
X140563600Y-135267615D01*
X140785639Y-135389604D01*
X140883340Y-135359970D01*
X140778249Y-135488024D01*
X140542392Y-135929281D01*
X140397153Y-136408073D01*
X140348111Y-136906000D01*
X140397153Y-137403927D01*
X140542392Y-137882719D01*
X140778249Y-138323976D01*
X141095659Y-138710741D01*
X141482424Y-139028151D01*
X141923681Y-139264008D01*
X142402473Y-139409247D01*
X142775629Y-139446000D01*
X150382929Y-139446000D01*
X150507700Y-139458289D01*
X150632471Y-139446000D01*
X151005627Y-139409247D01*
X151484419Y-139264008D01*
X151925676Y-139028151D01*
X152312441Y-138710741D01*
X152391986Y-138613815D01*
X154222120Y-136783682D01*
X154319041Y-136704141D01*
X154636451Y-136317376D01*
X154872308Y-135876119D01*
X155017547Y-135397327D01*
X155054300Y-135024171D01*
X155054300Y-135024170D01*
X155066589Y-134899400D01*
X155054300Y-134774629D01*
X155054300Y-103147765D01*
X160934500Y-103147765D01*
X160934500Y-103430435D01*
X160989647Y-103707674D01*
X161097820Y-103968827D01*
X161254863Y-104203859D01*
X161454741Y-104403737D01*
X161687259Y-104559100D01*
X161454741Y-104714463D01*
X161254863Y-104914341D01*
X161097820Y-105149373D01*
X160989647Y-105410526D01*
X160934500Y-105687765D01*
X160934500Y-105970435D01*
X160989647Y-106247674D01*
X161097820Y-106508827D01*
X161254863Y-106743859D01*
X161454741Y-106943737D01*
X161687259Y-107099100D01*
X161454741Y-107254463D01*
X161254863Y-107454341D01*
X161097820Y-107689373D01*
X160989647Y-107950526D01*
X160934500Y-108227765D01*
X160934500Y-108510435D01*
X160989647Y-108787674D01*
X161097820Y-109048827D01*
X161254863Y-109283859D01*
X161454741Y-109483737D01*
X161687259Y-109639100D01*
X161454741Y-109794463D01*
X161254863Y-109994341D01*
X161097820Y-110229373D01*
X160989647Y-110490526D01*
X160934500Y-110767765D01*
X160934500Y-111050435D01*
X160989647Y-111327674D01*
X161097820Y-111588827D01*
X161254863Y-111823859D01*
X161454741Y-112023737D01*
X161687259Y-112179100D01*
X161454741Y-112334463D01*
X161254863Y-112534341D01*
X161097820Y-112769373D01*
X160989647Y-113030526D01*
X160934500Y-113307765D01*
X160934500Y-113590435D01*
X160989647Y-113867674D01*
X161097820Y-114128827D01*
X161254863Y-114363859D01*
X161454741Y-114563737D01*
X161687259Y-114719100D01*
X161454741Y-114874463D01*
X161254863Y-115074341D01*
X161097820Y-115309373D01*
X160989647Y-115570526D01*
X160934500Y-115847765D01*
X160934500Y-116130435D01*
X160989647Y-116407674D01*
X161097820Y-116668827D01*
X161254863Y-116903859D01*
X161454741Y-117103737D01*
X161687259Y-117259100D01*
X161454741Y-117414463D01*
X161254863Y-117614341D01*
X161097820Y-117849373D01*
X160989647Y-118110526D01*
X160934500Y-118387765D01*
X160934500Y-118670435D01*
X160989647Y-118947674D01*
X161097820Y-119208827D01*
X161254863Y-119443859D01*
X161454741Y-119643737D01*
X161687259Y-119799100D01*
X161454741Y-119954463D01*
X161254863Y-120154341D01*
X161097820Y-120389373D01*
X160989647Y-120650526D01*
X160934500Y-120927765D01*
X160934500Y-121210435D01*
X160989647Y-121487674D01*
X161097820Y-121748827D01*
X161254863Y-121983859D01*
X161454741Y-122183737D01*
X161687259Y-122339100D01*
X161454741Y-122494463D01*
X161254863Y-122694341D01*
X161097820Y-122929373D01*
X160989647Y-123190526D01*
X160934500Y-123467765D01*
X160934500Y-123750435D01*
X160989647Y-124027674D01*
X161097820Y-124288827D01*
X161254863Y-124523859D01*
X161454741Y-124723737D01*
X161687259Y-124879100D01*
X161454741Y-125034463D01*
X161254863Y-125234341D01*
X161097820Y-125469373D01*
X160989647Y-125730526D01*
X160934500Y-126007765D01*
X160934500Y-126290435D01*
X160989647Y-126567674D01*
X161097820Y-126828827D01*
X161254863Y-127063859D01*
X161454741Y-127263737D01*
X161687259Y-127419100D01*
X161454741Y-127574463D01*
X161254863Y-127774341D01*
X161097820Y-128009373D01*
X160989647Y-128270526D01*
X160934500Y-128547765D01*
X160934500Y-128830435D01*
X160989647Y-129107674D01*
X161097820Y-129368827D01*
X161254863Y-129603859D01*
X161454741Y-129803737D01*
X161687259Y-129959100D01*
X161454741Y-130114463D01*
X161254863Y-130314341D01*
X161097820Y-130549373D01*
X160989647Y-130810526D01*
X160934500Y-131087765D01*
X160934500Y-131370435D01*
X160989647Y-131647674D01*
X161097820Y-131908827D01*
X161254863Y-132143859D01*
X161454741Y-132343737D01*
X161687259Y-132499100D01*
X161454741Y-132654463D01*
X161254863Y-132854341D01*
X161097820Y-133089373D01*
X160989647Y-133350526D01*
X160934500Y-133627765D01*
X160934500Y-133910435D01*
X160989647Y-134187674D01*
X161097820Y-134448827D01*
X161254863Y-134683859D01*
X161454741Y-134883737D01*
X161689773Y-135040780D01*
X161950926Y-135148953D01*
X162228165Y-135204100D01*
X162510835Y-135204100D01*
X162788074Y-135148953D01*
X163049227Y-135040780D01*
X163284259Y-134883737D01*
X163484137Y-134683859D01*
X163641180Y-134448827D01*
X163749353Y-134187674D01*
X163804500Y-133910435D01*
X163804500Y-133627765D01*
X163749353Y-133350526D01*
X163641180Y-133089373D01*
X163484137Y-132854341D01*
X163284259Y-132654463D01*
X163051741Y-132499100D01*
X163284259Y-132343737D01*
X163484137Y-132143859D01*
X163641180Y-131908827D01*
X163749353Y-131647674D01*
X163804500Y-131370435D01*
X163804500Y-131087765D01*
X163749353Y-130810526D01*
X163641180Y-130549373D01*
X163484137Y-130314341D01*
X163284259Y-130114463D01*
X163051741Y-129959100D01*
X163284259Y-129803737D01*
X163484137Y-129603859D01*
X163641180Y-129368827D01*
X163749353Y-129107674D01*
X163804500Y-128830435D01*
X163804500Y-128547765D01*
X163749353Y-128270526D01*
X163641180Y-128009373D01*
X163484137Y-127774341D01*
X163284259Y-127574463D01*
X163051741Y-127419100D01*
X163284259Y-127263737D01*
X163484137Y-127063859D01*
X163641180Y-126828827D01*
X163749353Y-126567674D01*
X163804500Y-126290435D01*
X163804500Y-126007765D01*
X163749353Y-125730526D01*
X163641180Y-125469373D01*
X163484137Y-125234341D01*
X163284259Y-125034463D01*
X163051741Y-124879100D01*
X163284259Y-124723737D01*
X163484137Y-124523859D01*
X163641180Y-124288827D01*
X163749353Y-124027674D01*
X163804500Y-123750435D01*
X163804500Y-123467765D01*
X163749353Y-123190526D01*
X163641180Y-122929373D01*
X163484137Y-122694341D01*
X163284259Y-122494463D01*
X163051741Y-122339100D01*
X163284259Y-122183737D01*
X163484137Y-121983859D01*
X163641180Y-121748827D01*
X163749353Y-121487674D01*
X163804500Y-121210435D01*
X163804500Y-120927765D01*
X163749353Y-120650526D01*
X163641180Y-120389373D01*
X163484137Y-120154341D01*
X163284259Y-119954463D01*
X163051741Y-119799100D01*
X163284259Y-119643737D01*
X163484137Y-119443859D01*
X163641180Y-119208827D01*
X163749353Y-118947674D01*
X163804500Y-118670435D01*
X163804500Y-118387765D01*
X163749353Y-118110526D01*
X163641180Y-117849373D01*
X163484137Y-117614341D01*
X163284259Y-117414463D01*
X163051741Y-117259100D01*
X163284259Y-117103737D01*
X163484137Y-116903859D01*
X163641180Y-116668827D01*
X163749353Y-116407674D01*
X163804500Y-116130435D01*
X163804500Y-115847765D01*
X163749353Y-115570526D01*
X163641180Y-115309373D01*
X163484137Y-115074341D01*
X163284259Y-114874463D01*
X163051741Y-114719100D01*
X163284259Y-114563737D01*
X163484137Y-114363859D01*
X163641180Y-114128827D01*
X163749353Y-113867674D01*
X163804500Y-113590435D01*
X163804500Y-113307765D01*
X163749353Y-113030526D01*
X163641180Y-112769373D01*
X163484137Y-112534341D01*
X163284259Y-112334463D01*
X163051741Y-112179100D01*
X163284259Y-112023737D01*
X163484137Y-111823859D01*
X163641180Y-111588827D01*
X163749353Y-111327674D01*
X163804500Y-111050435D01*
X163804500Y-110767765D01*
X163749353Y-110490526D01*
X163641180Y-110229373D01*
X163484137Y-109994341D01*
X163284259Y-109794463D01*
X163051741Y-109639100D01*
X163284259Y-109483737D01*
X163484137Y-109283859D01*
X163641180Y-109048827D01*
X163749353Y-108787674D01*
X163804500Y-108510435D01*
X163804500Y-108227765D01*
X163749353Y-107950526D01*
X163641180Y-107689373D01*
X163484137Y-107454341D01*
X163284259Y-107254463D01*
X163051741Y-107099100D01*
X163284259Y-106943737D01*
X163484137Y-106743859D01*
X163641180Y-106508827D01*
X163749353Y-106247674D01*
X163804500Y-105970435D01*
X163804500Y-105687765D01*
X163749353Y-105410526D01*
X163641180Y-105149373D01*
X163484137Y-104914341D01*
X163284259Y-104714463D01*
X163051741Y-104559100D01*
X163284259Y-104403737D01*
X163484137Y-104203859D01*
X163641180Y-103968827D01*
X163749353Y-103707674D01*
X163804500Y-103430435D01*
X163804500Y-103147765D01*
X163749353Y-102870526D01*
X163641180Y-102609373D01*
X163484137Y-102374341D01*
X163284259Y-102174463D01*
X163049227Y-102017420D01*
X163038635Y-102013033D01*
X163224631Y-101901485D01*
X163433019Y-101712514D01*
X163600537Y-101486520D01*
X163720746Y-101232187D01*
X163761404Y-101098139D01*
X163639415Y-100876100D01*
X162496500Y-100876100D01*
X162496500Y-100896100D01*
X162242500Y-100896100D01*
X162242500Y-100876100D01*
X161099585Y-100876100D01*
X160977596Y-101098139D01*
X161018254Y-101232187D01*
X161138463Y-101486520D01*
X161305981Y-101712514D01*
X161514369Y-101901485D01*
X161700365Y-102013033D01*
X161689773Y-102017420D01*
X161454741Y-102174463D01*
X161254863Y-102374341D01*
X161097820Y-102609373D01*
X160989647Y-102870526D01*
X160934500Y-103147765D01*
X155054300Y-103147765D01*
X155054300Y-95641364D01*
X155066588Y-95516600D01*
X155054300Y-95391836D01*
X155054300Y-95391830D01*
X155017547Y-95018674D01*
X155007860Y-94986738D01*
X154947758Y-94788608D01*
X154872308Y-94539882D01*
X154636451Y-94098625D01*
X154385397Y-93792715D01*
X154603727Y-93702280D01*
X154834325Y-93548200D01*
X155363089Y-93548200D01*
X155555673Y-93676880D01*
X155816826Y-93785053D01*
X156094065Y-93840200D01*
X156376735Y-93840200D01*
X156653974Y-93785053D01*
X156915127Y-93676880D01*
X157107711Y-93548200D01*
X157351260Y-93548200D01*
X161191792Y-97388733D01*
X161097820Y-97529373D01*
X160989647Y-97790526D01*
X160934500Y-98067765D01*
X160934500Y-98350435D01*
X160989647Y-98627674D01*
X161097820Y-98888827D01*
X161254863Y-99123859D01*
X161454741Y-99323737D01*
X161689773Y-99480780D01*
X161700365Y-99485167D01*
X161514369Y-99596715D01*
X161305981Y-99785686D01*
X161138463Y-100011680D01*
X161018254Y-100266013D01*
X160977596Y-100400061D01*
X161099585Y-100622100D01*
X162242500Y-100622100D01*
X162242500Y-100602100D01*
X162496500Y-100602100D01*
X162496500Y-100622100D01*
X163639415Y-100622100D01*
X163761404Y-100400061D01*
X163720746Y-100266013D01*
X163600537Y-100011680D01*
X163433019Y-99785686D01*
X163224631Y-99596715D01*
X163038635Y-99485167D01*
X163049227Y-99480780D01*
X163284259Y-99323737D01*
X163484137Y-99123859D01*
X163641180Y-98888827D01*
X163749353Y-98627674D01*
X163804500Y-98350435D01*
X163804500Y-98067765D01*
X163749353Y-97790526D01*
X163641180Y-97529373D01*
X163484137Y-97294341D01*
X163385500Y-97195704D01*
X163385500Y-97179493D01*
X163390414Y-97129599D01*
X163385500Y-97079705D01*
X163385500Y-97079698D01*
X163371487Y-96937420D01*
X163370798Y-96930428D01*
X163340743Y-96831353D01*
X163312702Y-96738913D01*
X163218360Y-96562410D01*
X163091396Y-96407704D01*
X163052633Y-96375892D01*
X160074643Y-93397902D01*
X163042303Y-93397902D01*
X163113886Y-93641871D01*
X163369396Y-93762771D01*
X163643584Y-93831500D01*
X163925912Y-93845417D01*
X164205530Y-93803987D01*
X164471692Y-93708803D01*
X164596914Y-93641871D01*
X164668497Y-93397902D01*
X163855400Y-92584805D01*
X163042303Y-93397902D01*
X160074643Y-93397902D01*
X159152453Y-92475712D01*
X162415183Y-92475712D01*
X162456613Y-92755330D01*
X162551797Y-93021492D01*
X162618729Y-93146714D01*
X162862698Y-93218297D01*
X163675795Y-92405200D01*
X164035005Y-92405200D01*
X164848102Y-93218297D01*
X165092071Y-93146714D01*
X165212971Y-92891204D01*
X165281700Y-92617016D01*
X165295617Y-92334688D01*
X165254187Y-92055070D01*
X165159003Y-91788908D01*
X165092071Y-91663686D01*
X164848102Y-91592103D01*
X164035005Y-92405200D01*
X163675795Y-92405200D01*
X162862698Y-91592103D01*
X162618729Y-91663686D01*
X162497829Y-91919196D01*
X162429100Y-92193384D01*
X162415183Y-92475712D01*
X159152453Y-92475712D01*
X158525812Y-91849072D01*
X158493996Y-91810304D01*
X158339290Y-91683340D01*
X158162787Y-91588998D01*
X157971271Y-91530902D01*
X157822002Y-91516200D01*
X157772100Y-91511285D01*
X157722198Y-91516200D01*
X157367249Y-91516200D01*
X157350037Y-91490441D01*
X157272094Y-91412498D01*
X163042303Y-91412498D01*
X163855400Y-92225595D01*
X164668497Y-91412498D01*
X164596914Y-91168529D01*
X164341404Y-91047629D01*
X164067216Y-90978900D01*
X163784888Y-90964983D01*
X163505270Y-91006413D01*
X163239108Y-91101597D01*
X163113886Y-91168529D01*
X163042303Y-91412498D01*
X157272094Y-91412498D01*
X157150159Y-91290563D01*
X156915127Y-91133520D01*
X156653974Y-91025347D01*
X156376735Y-90970200D01*
X156094065Y-90970200D01*
X155816826Y-91025347D01*
X155555673Y-91133520D01*
X155320641Y-91290563D01*
X155120763Y-91490441D01*
X155103551Y-91516200D01*
X155038877Y-91516200D01*
X155038637Y-91515841D01*
X154838759Y-91315963D01*
X154603727Y-91158920D01*
X154342574Y-91050747D01*
X154311919Y-91044649D01*
X154350551Y-90997576D01*
X154586408Y-90556319D01*
X154661598Y-90308450D01*
X154731648Y-90077527D01*
X154780689Y-89579600D01*
X154768400Y-89454826D01*
X154768400Y-85248129D01*
X154760124Y-85164098D01*
X160408400Y-85164098D01*
X160408400Y-85581702D01*
X160489870Y-85991281D01*
X160649680Y-86377097D01*
X160881688Y-86724321D01*
X161176979Y-87019612D01*
X161524203Y-87251620D01*
X161910019Y-87411430D01*
X162319598Y-87492900D01*
X162737202Y-87492900D01*
X163146781Y-87411430D01*
X163532597Y-87251620D01*
X163879821Y-87019612D01*
X164175112Y-86724321D01*
X164407120Y-86377097D01*
X164566930Y-85991281D01*
X164648400Y-85581702D01*
X164648400Y-85164098D01*
X164566930Y-84754519D01*
X164407120Y-84368703D01*
X164175112Y-84021479D01*
X163879821Y-83726188D01*
X163532597Y-83494180D01*
X163146781Y-83334370D01*
X162737202Y-83252900D01*
X162319598Y-83252900D01*
X161910019Y-83334370D01*
X161524203Y-83494180D01*
X161176979Y-83726188D01*
X160881688Y-84021479D01*
X160649680Y-84368703D01*
X160489870Y-84754519D01*
X160408400Y-85164098D01*
X154760124Y-85164098D01*
X154731647Y-84874973D01*
X154586408Y-84396181D01*
X154350551Y-83954924D01*
X154033141Y-83568159D01*
X153646376Y-83250749D01*
X153205119Y-83014892D01*
X152726327Y-82869653D01*
X152228400Y-82820611D01*
X151730474Y-82869653D01*
X151251682Y-83014892D01*
X150810425Y-83250749D01*
X150423660Y-83568159D01*
X150106250Y-83954924D01*
X149913800Y-84314972D01*
X149913800Y-78930828D01*
X150106250Y-79290875D01*
X150423660Y-79677640D01*
X150810425Y-79995050D01*
X151251682Y-80230908D01*
X151730474Y-80376147D01*
X152228400Y-80425189D01*
X152726326Y-80376147D01*
X153205118Y-80230908D01*
X153646375Y-79995050D01*
X153936224Y-79757177D01*
X156029303Y-77664098D01*
X160408400Y-77664098D01*
X160408400Y-78081702D01*
X160489870Y-78491281D01*
X160649680Y-78877097D01*
X160881688Y-79224321D01*
X161176979Y-79519612D01*
X161524203Y-79751620D01*
X161910019Y-79911430D01*
X162319598Y-79992900D01*
X162737202Y-79992900D01*
X163146781Y-79911430D01*
X163532597Y-79751620D01*
X163879821Y-79519612D01*
X164175112Y-79224321D01*
X164407120Y-78877097D01*
X164566930Y-78491281D01*
X164648400Y-78081702D01*
X164648400Y-77664098D01*
X164566930Y-77254519D01*
X164407120Y-76868703D01*
X164175112Y-76521479D01*
X163879821Y-76226188D01*
X163532597Y-75994180D01*
X163146781Y-75834370D01*
X162737202Y-75752900D01*
X162319598Y-75752900D01*
X161910019Y-75834370D01*
X161524203Y-75994180D01*
X161176979Y-76226188D01*
X160881688Y-76521479D01*
X160649680Y-76868703D01*
X160489870Y-77254519D01*
X160408400Y-77664098D01*
X156029303Y-77664098D01*
X158087149Y-75606252D01*
X158184071Y-75526711D01*
X158501481Y-75139946D01*
X158737338Y-74698689D01*
X158760351Y-74622826D01*
X158882578Y-74219897D01*
X158931619Y-73721970D01*
X158919330Y-73597196D01*
X158919330Y-71305775D01*
X158936373Y-71280268D01*
X159153884Y-70755152D01*
X159264770Y-70197691D01*
X159264770Y-69629309D01*
X159153884Y-69071848D01*
X158936373Y-68546732D01*
X158620597Y-68074139D01*
X158218691Y-67672233D01*
X157746098Y-67356457D01*
X157220982Y-67138946D01*
X156663521Y-67028060D01*
X156095139Y-67028060D01*
X155537678Y-67138946D01*
X155012562Y-67356457D01*
X154539969Y-67672233D01*
X154138063Y-68074139D01*
X153822287Y-68546732D01*
X153604776Y-69071848D01*
X153493890Y-69629309D01*
X153493890Y-70197691D01*
X153604776Y-70755152D01*
X153822287Y-71280268D01*
X153839330Y-71305775D01*
X153839331Y-72669867D01*
X150344123Y-76165076D01*
X150106250Y-76454925D01*
X149913800Y-76814972D01*
X149913800Y-73299728D01*
X143543800Y-73299728D01*
X143543800Y-88726871D01*
X149489028Y-88726871D01*
X149042680Y-89173219D01*
X148945759Y-89252760D01*
X148628349Y-89639525D01*
X148494146Y-89890600D01*
X146179229Y-89890600D01*
X145806073Y-89927353D01*
X145327281Y-90072592D01*
X144886024Y-90308449D01*
X144499259Y-90625859D01*
X144181849Y-91012624D01*
X143945992Y-91453881D01*
X143800753Y-91932673D01*
X143751711Y-92430600D01*
X143800753Y-92928527D01*
X143945992Y-93407319D01*
X144181849Y-93848576D01*
X144499259Y-94235341D01*
X144886024Y-94552751D01*
X145327281Y-94788608D01*
X145806073Y-94933847D01*
X146179229Y-94970600D01*
X148376198Y-94970600D01*
X148866213Y-95460615D01*
X148945758Y-95557541D01*
X149042684Y-95637086D01*
X149974301Y-96568704D01*
X149974300Y-133847298D01*
X149455599Y-134366000D01*
X148435488Y-134366000D01*
X148509353Y-134187674D01*
X148564500Y-133910435D01*
X148564500Y-133627765D01*
X148509353Y-133350526D01*
X148401180Y-133089373D01*
X148244137Y-132854341D01*
X148044259Y-132654463D01*
X147811741Y-132499100D01*
X148044259Y-132343737D01*
X148244137Y-132143859D01*
X148401180Y-131908827D01*
X148509353Y-131647674D01*
X148564500Y-131370435D01*
X148564500Y-131087765D01*
X148509353Y-130810526D01*
X148401180Y-130549373D01*
X148244137Y-130314341D01*
X148044259Y-130114463D01*
X147811741Y-129959100D01*
X148044259Y-129803737D01*
X148244137Y-129603859D01*
X148401180Y-129368827D01*
X148509353Y-129107674D01*
X148564500Y-128830435D01*
X148564500Y-128547765D01*
X148509353Y-128270526D01*
X148401180Y-128009373D01*
X148244137Y-127774341D01*
X148044259Y-127574463D01*
X147811741Y-127419100D01*
X148044259Y-127263737D01*
X148244137Y-127063859D01*
X148401180Y-126828827D01*
X148509353Y-126567674D01*
X148564500Y-126290435D01*
X148564500Y-126007765D01*
X148509353Y-125730526D01*
X148401180Y-125469373D01*
X148244137Y-125234341D01*
X148044259Y-125034463D01*
X147811741Y-124879100D01*
X148044259Y-124723737D01*
X148244137Y-124523859D01*
X148401180Y-124288827D01*
X148509353Y-124027674D01*
X148564500Y-123750435D01*
X148564500Y-123467765D01*
X148509353Y-123190526D01*
X148401180Y-122929373D01*
X148244137Y-122694341D01*
X148044259Y-122494463D01*
X147811741Y-122339100D01*
X148044259Y-122183737D01*
X148244137Y-121983859D01*
X148401180Y-121748827D01*
X148509353Y-121487674D01*
X148564500Y-121210435D01*
X148564500Y-120927765D01*
X148509353Y-120650526D01*
X148401180Y-120389373D01*
X148244137Y-120154341D01*
X148044259Y-119954463D01*
X147811741Y-119799100D01*
X148044259Y-119643737D01*
X148244137Y-119443859D01*
X148401180Y-119208827D01*
X148509353Y-118947674D01*
X148564500Y-118670435D01*
X148564500Y-118387765D01*
X148509353Y-118110526D01*
X148401180Y-117849373D01*
X148244137Y-117614341D01*
X148044259Y-117414463D01*
X147811741Y-117259100D01*
X148044259Y-117103737D01*
X148244137Y-116903859D01*
X148401180Y-116668827D01*
X148509353Y-116407674D01*
X148564500Y-116130435D01*
X148564500Y-115847765D01*
X148509353Y-115570526D01*
X148401180Y-115309373D01*
X148244137Y-115074341D01*
X148044259Y-114874463D01*
X147811741Y-114719100D01*
X148044259Y-114563737D01*
X148244137Y-114363859D01*
X148401180Y-114128827D01*
X148509353Y-113867674D01*
X148564500Y-113590435D01*
X148564500Y-113307765D01*
X148509353Y-113030526D01*
X148401180Y-112769373D01*
X148244137Y-112534341D01*
X148044259Y-112334463D01*
X147811741Y-112179100D01*
X148044259Y-112023737D01*
X148244137Y-111823859D01*
X148401180Y-111588827D01*
X148509353Y-111327674D01*
X148564500Y-111050435D01*
X148564500Y-110767765D01*
X148509353Y-110490526D01*
X148401180Y-110229373D01*
X148244137Y-109994341D01*
X148044259Y-109794463D01*
X147811741Y-109639100D01*
X148044259Y-109483737D01*
X148244137Y-109283859D01*
X148401180Y-109048827D01*
X148509353Y-108787674D01*
X148564500Y-108510435D01*
X148564500Y-108227765D01*
X148509353Y-107950526D01*
X148401180Y-107689373D01*
X148244137Y-107454341D01*
X148044259Y-107254463D01*
X147809227Y-107097420D01*
X147798635Y-107093033D01*
X147984631Y-106981485D01*
X148193019Y-106792514D01*
X148360537Y-106566520D01*
X148480746Y-106312187D01*
X148521404Y-106178139D01*
X148399415Y-105956100D01*
X147256500Y-105956100D01*
X147256500Y-105976100D01*
X147002500Y-105976100D01*
X147002500Y-105956100D01*
X146982500Y-105956100D01*
X146982500Y-105702100D01*
X147002500Y-105702100D01*
X147002500Y-105682100D01*
X147256500Y-105682100D01*
X147256500Y-105702100D01*
X148399415Y-105702100D01*
X148521404Y-105480061D01*
X148480746Y-105346013D01*
X148360537Y-105091680D01*
X148193019Y-104865686D01*
X147984631Y-104676715D01*
X147798635Y-104565167D01*
X147809227Y-104560780D01*
X148044259Y-104403737D01*
X148244137Y-104203859D01*
X148401180Y-103968827D01*
X148509353Y-103707674D01*
X148564500Y-103430435D01*
X148564500Y-103147765D01*
X148509353Y-102870526D01*
X148401180Y-102609373D01*
X148244137Y-102374341D01*
X148044259Y-102174463D01*
X147811741Y-102019100D01*
X148044259Y-101863737D01*
X148244137Y-101663859D01*
X148401180Y-101428827D01*
X148509353Y-101167674D01*
X148564500Y-100890435D01*
X148564500Y-100607765D01*
X148509353Y-100330526D01*
X148401180Y-100069373D01*
X148244137Y-99834341D01*
X148045539Y-99635743D01*
X148053982Y-99634912D01*
X148173680Y-99598602D01*
X148283994Y-99539637D01*
X148380685Y-99460285D01*
X148460037Y-99363594D01*
X148519002Y-99253280D01*
X148555312Y-99133582D01*
X148567572Y-99009100D01*
X148567572Y-97409100D01*
X148555312Y-97284618D01*
X148519002Y-97164920D01*
X148460037Y-97054606D01*
X148380685Y-96957915D01*
X148283994Y-96878563D01*
X148173680Y-96819598D01*
X148053982Y-96783288D01*
X147929500Y-96771028D01*
X146329500Y-96771028D01*
X146205018Y-96783288D01*
X146085320Y-96819598D01*
X145975006Y-96878563D01*
X145878315Y-96957915D01*
X145798963Y-97054606D01*
X145739998Y-97164920D01*
X145703688Y-97284618D01*
X145691428Y-97409100D01*
X145691428Y-99009100D01*
X145703688Y-99133582D01*
X145739998Y-99253280D01*
X145798963Y-99363594D01*
X145878315Y-99460285D01*
X145975006Y-99539637D01*
X146085320Y-99598602D01*
X146205018Y-99634912D01*
X146213461Y-99635743D01*
X146014863Y-99834341D01*
X145857820Y-100069373D01*
X145749647Y-100330526D01*
X145694500Y-100607765D01*
X145694500Y-100890435D01*
X145749647Y-101167674D01*
X145857820Y-101428827D01*
X146014863Y-101663859D01*
X146214741Y-101863737D01*
X146447259Y-102019100D01*
X146214741Y-102174463D01*
X146014863Y-102374341D01*
X145857820Y-102609373D01*
X145749647Y-102870526D01*
X145694500Y-103147765D01*
X145694500Y-103430435D01*
X145749647Y-103707674D01*
X145857820Y-103968827D01*
X146014863Y-104203859D01*
X146214741Y-104403737D01*
X146449773Y-104560780D01*
X146460365Y-104565167D01*
X146274369Y-104676715D01*
X146065981Y-104865686D01*
X145898463Y-105091680D01*
X145778254Y-105346013D01*
X145737596Y-105480061D01*
X145811112Y-105613871D01*
X143383000Y-103185760D01*
X143383000Y-86569922D01*
X143387915Y-86520020D01*
X143368298Y-86320849D01*
X143310202Y-86129332D01*
X143236412Y-85991281D01*
X143215860Y-85952830D01*
X143088896Y-85798124D01*
X143050133Y-85766312D01*
X141871600Y-84587780D01*
X141871600Y-84448285D01*
X141816453Y-84171046D01*
X141708280Y-83909893D01*
X141551237Y-83674861D01*
X141452600Y-83576224D01*
X141452600Y-82775996D01*
X141551237Y-82677359D01*
X141708280Y-82442327D01*
X141816453Y-82181174D01*
X141871600Y-81903935D01*
X141871600Y-81621265D01*
X141816453Y-81344026D01*
X141708280Y-81082873D01*
X141551237Y-80847841D01*
X141351359Y-80647963D01*
X141116327Y-80490920D01*
X140855174Y-80382747D01*
X140577935Y-80327600D01*
X140295265Y-80327600D01*
X140018026Y-80382747D01*
X139756873Y-80490920D01*
X139521841Y-80647963D01*
X139321963Y-80847841D01*
X139164920Y-81082873D01*
X139056747Y-81344026D01*
X139001600Y-81621265D01*
X139001600Y-81903935D01*
X139056747Y-82181174D01*
X139164920Y-82442327D01*
X139321963Y-82677359D01*
X139420600Y-82775996D01*
X139420601Y-83576223D01*
X139321963Y-83674861D01*
X139164920Y-83909893D01*
X139056747Y-84171046D01*
X139001600Y-84448285D01*
X139001600Y-84730955D01*
X139056747Y-85008194D01*
X139164920Y-85269347D01*
X139321963Y-85504379D01*
X139521841Y-85704257D01*
X139756873Y-85861300D01*
X140018026Y-85969473D01*
X140295265Y-86024620D01*
X140434760Y-86024620D01*
X141351001Y-86940862D01*
X141351001Y-88566729D01*
X141285460Y-88444110D01*
X141190306Y-88328165D01*
X141158496Y-88289404D01*
X141119733Y-88257592D01*
X138348200Y-85486060D01*
X138348200Y-85220238D01*
X138288635Y-84920782D01*
X138171792Y-84638700D01*
X138002164Y-84384832D01*
X137786268Y-84168936D01*
X137532400Y-83999308D01*
X137250318Y-83882465D01*
X136950862Y-83822900D01*
X136645538Y-83822900D01*
X136346082Y-83882465D01*
X136064000Y-83999308D01*
X135810132Y-84168936D01*
X135594236Y-84384832D01*
X135424608Y-84638700D01*
X135307765Y-84920782D01*
X135248200Y-85220238D01*
X134135902Y-85220238D01*
X142958692Y-76397449D01*
X142997455Y-76365637D01*
X143124419Y-76210931D01*
X143218761Y-76034428D01*
X143276857Y-75842912D01*
X143291559Y-75693643D01*
X143291559Y-75693642D01*
X143296474Y-75643741D01*
X143291559Y-75593839D01*
X143291559Y-72584779D01*
X143333578Y-72542760D01*
X143684346Y-72688054D01*
X144241807Y-72798940D01*
X144810189Y-72798940D01*
X145367650Y-72688054D01*
X145892766Y-72470543D01*
X146365359Y-72154767D01*
X146580972Y-71939154D01*
X148606615Y-71939154D01*
X148852819Y-72331562D01*
X149355301Y-72597213D01*
X149899953Y-72759732D01*
X150465844Y-72812871D01*
X151031231Y-72754589D01*
X151574383Y-72587126D01*
X152052509Y-72331562D01*
X152298713Y-71939154D01*
X150452664Y-70093105D01*
X148606615Y-71939154D01*
X146580972Y-71939154D01*
X146767265Y-71752861D01*
X147083041Y-71280268D01*
X147300552Y-70755152D01*
X147411438Y-70197691D01*
X147411438Y-69926680D01*
X147553293Y-69926680D01*
X147611575Y-70492067D01*
X147779038Y-71035219D01*
X148034602Y-71513345D01*
X148427010Y-71759549D01*
X150273059Y-69913500D01*
X150632269Y-69913500D01*
X152478318Y-71759549D01*
X152870726Y-71513345D01*
X153136377Y-71010863D01*
X153298896Y-70466211D01*
X153352035Y-69900320D01*
X153293753Y-69334933D01*
X153126290Y-68791781D01*
X152870726Y-68313655D01*
X152478318Y-68067451D01*
X150632269Y-69913500D01*
X150273059Y-69913500D01*
X148427010Y-68067451D01*
X148034602Y-68313655D01*
X147768951Y-68816137D01*
X147606432Y-69360789D01*
X147553293Y-69926680D01*
X147411438Y-69926680D01*
X147411438Y-69629309D01*
X147300552Y-69071848D01*
X147083041Y-68546732D01*
X146767265Y-68074139D01*
X146580972Y-67887846D01*
X148606615Y-67887846D01*
X150452664Y-69733895D01*
X152298713Y-67887846D01*
X152052509Y-67495438D01*
X151550027Y-67229787D01*
X151005375Y-67067268D01*
X150439484Y-67014129D01*
X149874097Y-67072411D01*
X149330945Y-67239874D01*
X148852819Y-67495438D01*
X148606615Y-67887846D01*
X146580972Y-67887846D01*
X146365359Y-67672233D01*
X145892766Y-67356457D01*
X145367650Y-67138946D01*
X144810189Y-67028060D01*
X144241807Y-67028060D01*
X143684346Y-67138946D01*
X143159230Y-67356457D01*
X142686637Y-67672233D01*
X142284731Y-68074139D01*
X141968955Y-68546732D01*
X141751444Y-69071848D01*
X141640558Y-69629309D01*
X141640558Y-70197691D01*
X141751444Y-70755152D01*
X141896738Y-71105920D01*
X141592427Y-71410231D01*
X141553664Y-71442043D01*
X141426700Y-71596749D01*
X141343257Y-71752861D01*
X141332358Y-71773252D01*
X141274261Y-71964769D01*
X141254644Y-72163939D01*
X141259560Y-72213851D01*
X141259560Y-72974969D01*
X141174020Y-72911563D01*
X140919687Y-72791354D01*
X140785639Y-72750696D01*
X140563600Y-72872685D01*
X140563600Y-74015600D01*
X140583600Y-74015600D01*
X140583600Y-74269600D01*
X140563600Y-74269600D01*
X140563600Y-75412515D01*
X140785639Y-75534504D01*
X140919687Y-75493846D01*
X141050388Y-75432071D01*
X138321210Y-78161249D01*
X138348200Y-78025562D01*
X138348200Y-77720238D01*
X138288635Y-77420782D01*
X138171792Y-77138700D01*
X138002164Y-76884832D01*
X137786268Y-76668936D01*
X137532400Y-76499308D01*
X137250318Y-76382465D01*
X136950862Y-76322900D01*
X136645538Y-76322900D01*
X136346082Y-76382465D01*
X136064000Y-76499308D01*
X135810132Y-76668936D01*
X135594236Y-76884832D01*
X135424608Y-77138700D01*
X135307765Y-77420782D01*
X135248200Y-77720238D01*
X135248200Y-78025562D01*
X135307765Y-78325018D01*
X135424608Y-78607100D01*
X135594236Y-78860968D01*
X135810132Y-79076864D01*
X136064000Y-79246492D01*
X136346082Y-79363335D01*
X136645538Y-79422900D01*
X136950862Y-79422900D01*
X137086549Y-79395910D01*
X129761201Y-86721259D01*
X129761201Y-81428839D01*
X136698400Y-74491640D01*
X139044691Y-74491640D01*
X139139530Y-74756481D01*
X139284215Y-74997731D01*
X139473186Y-75206119D01*
X139699180Y-75373637D01*
X139953513Y-75493846D01*
X140087561Y-75534504D01*
X140309600Y-75412515D01*
X140309600Y-74269600D01*
X139165976Y-74269600D01*
X139044691Y-74491640D01*
X136698400Y-74491640D01*
X137032026Y-74158015D01*
X137070789Y-74126203D01*
X137197753Y-73971497D01*
X137292095Y-73794994D01*
X137292530Y-73793560D01*
X139044691Y-73793560D01*
X139165976Y-74015600D01*
X140309600Y-74015600D01*
X140309600Y-72872685D01*
X140087561Y-72750696D01*
X139953513Y-72791354D01*
X139699180Y-72911563D01*
X139473186Y-73079081D01*
X139284215Y-73287469D01*
X139139530Y-73528719D01*
X139044691Y-73793560D01*
X137292530Y-73793560D01*
X137350191Y-73603478D01*
X137364893Y-73454209D01*
X137364893Y-73454208D01*
X137369808Y-73404307D01*
X137364893Y-73354405D01*
X137364893Y-72584779D01*
X137406912Y-72542760D01*
X137757680Y-72688054D01*
X138315141Y-72798940D01*
X138883523Y-72798940D01*
X139440984Y-72688054D01*
X139966100Y-72470543D01*
X140438693Y-72154767D01*
X140840599Y-71752861D01*
X141156375Y-71280268D01*
X141373886Y-70755152D01*
X141484772Y-70197691D01*
X141484772Y-69629309D01*
X141373886Y-69071848D01*
X141156375Y-68546732D01*
X140840599Y-68074139D01*
X140438693Y-67672233D01*
X139966100Y-67356457D01*
X139440984Y-67138946D01*
X138883523Y-67028060D01*
X138315141Y-67028060D01*
X137757680Y-67138946D01*
X137232564Y-67356457D01*
X136759971Y-67672233D01*
X136358065Y-68074139D01*
X136042289Y-68546732D01*
X135824778Y-69071848D01*
X135713892Y-69629309D01*
X135713892Y-70197691D01*
X135824778Y-70755152D01*
X135970072Y-71105920D01*
X135665761Y-71410231D01*
X135626998Y-71442043D01*
X135500034Y-71596749D01*
X135416591Y-71752861D01*
X135405692Y-71773252D01*
X135347595Y-71964769D01*
X135327978Y-72163939D01*
X135332894Y-72213850D01*
X135332893Y-72983466D01*
X128056757Y-80259603D01*
X128017994Y-80291415D01*
X127891029Y-80446121D01*
X127796687Y-80622624D01*
X127738591Y-80814140D01*
X127729063Y-80910875D01*
X127718974Y-81013311D01*
X127723889Y-81063213D01*
X127723889Y-81246348D01*
X127718974Y-81296250D01*
X127723889Y-81346151D01*
X127729202Y-81400094D01*
X127729202Y-83645726D01*
X127502397Y-83494180D01*
X127116581Y-83334370D01*
X126707002Y-83252900D01*
X126289398Y-83252900D01*
X125879819Y-83334370D01*
X125494003Y-83494180D01*
X125146779Y-83726188D01*
X124851488Y-84021479D01*
X124619480Y-84368703D01*
X124459670Y-84754519D01*
X124378200Y-85164098D01*
X123113000Y-85164098D01*
X123113000Y-77664098D01*
X124378200Y-77664098D01*
X124378200Y-78081702D01*
X124459670Y-78491281D01*
X124619480Y-78877097D01*
X124851488Y-79224321D01*
X125146779Y-79519612D01*
X125494003Y-79751620D01*
X125879819Y-79911430D01*
X126289398Y-79992900D01*
X126707002Y-79992900D01*
X127116581Y-79911430D01*
X127502397Y-79751620D01*
X127849621Y-79519612D01*
X128144912Y-79224321D01*
X128376920Y-78877097D01*
X128536730Y-78491281D01*
X128618200Y-78081702D01*
X128618200Y-77664098D01*
X128536730Y-77254519D01*
X128376920Y-76868703D01*
X128144912Y-76521479D01*
X127849621Y-76226188D01*
X127514200Y-76002067D01*
X127514200Y-72449040D01*
X129033741Y-70929500D01*
X129970330Y-70929500D01*
X130115623Y-71280268D01*
X130431399Y-71752861D01*
X130833305Y-72154767D01*
X131305898Y-72470543D01*
X131831014Y-72688054D01*
X132388475Y-72798940D01*
X132956857Y-72798940D01*
X133514318Y-72688054D01*
X134039434Y-72470543D01*
X134512027Y-72154767D01*
X134913933Y-71752861D01*
X135229709Y-71280268D01*
X135447220Y-70755152D01*
X135558106Y-70197691D01*
X135558106Y-69629309D01*
X135447220Y-69071848D01*
X135229709Y-68546732D01*
X134913933Y-68074139D01*
X134512027Y-67672233D01*
X134039434Y-67356457D01*
X133514318Y-67138946D01*
X132956857Y-67028060D01*
X132388475Y-67028060D01*
X131831014Y-67138946D01*
X131305898Y-67356457D01*
X130833305Y-67672233D01*
X130431399Y-68074139D01*
X130115623Y-68546732D01*
X129970330Y-68897500D01*
X128662793Y-68897500D01*
X128612899Y-68892586D01*
X128563005Y-68897500D01*
X128562998Y-68897500D01*
X128433077Y-68910296D01*
X128413728Y-68912202D01*
X128355632Y-68929826D01*
X128222213Y-68970298D01*
X128045710Y-69064640D01*
X127891004Y-69191604D01*
X127859192Y-69230367D01*
X125815068Y-71274492D01*
X125776305Y-71306304D01*
X125649341Y-71461010D01*
X125621368Y-71513345D01*
X125554999Y-71637513D01*
X125496902Y-71829030D01*
X125477285Y-72028200D01*
X125482201Y-72078112D01*
X125482200Y-76002066D01*
X125146779Y-76226188D01*
X124851488Y-76521479D01*
X124619480Y-76868703D01*
X124459670Y-77254519D01*
X124378200Y-77664098D01*
X123113000Y-77664098D01*
X123113000Y-61716475D01*
X124111000Y-61716475D01*
X124111000Y-62235525D01*
X124212261Y-62744601D01*
X124410893Y-63224141D01*
X124699262Y-63655715D01*
X125066285Y-64022738D01*
X125497859Y-64311107D01*
X125977399Y-64509739D01*
X126486475Y-64611000D01*
X127005525Y-64611000D01*
X127514601Y-64509739D01*
X127994141Y-64311107D01*
X128425715Y-64022738D01*
X128792738Y-63655715D01*
X129081107Y-63224141D01*
X129279739Y-62744601D01*
X129381000Y-62235525D01*
X129381000Y-61716475D01*
X130037666Y-61716475D01*
X130037666Y-62235525D01*
X130138927Y-62744601D01*
X130337559Y-63224141D01*
X130625928Y-63655715D01*
X130992951Y-64022738D01*
X131424525Y-64311107D01*
X131904065Y-64509739D01*
X132413141Y-64611000D01*
X132932191Y-64611000D01*
X133441267Y-64509739D01*
X133920807Y-64311107D01*
X134352381Y-64022738D01*
X134719404Y-63655715D01*
X135007773Y-63224141D01*
X135206405Y-62744601D01*
X135307666Y-62235525D01*
X135307666Y-61716475D01*
X135964332Y-61716475D01*
X135964332Y-62235525D01*
X136065593Y-62744601D01*
X136264225Y-63224141D01*
X136552594Y-63655715D01*
X136919617Y-64022738D01*
X137351191Y-64311107D01*
X137830731Y-64509739D01*
X138339807Y-64611000D01*
X138858857Y-64611000D01*
X139367933Y-64509739D01*
X139847473Y-64311107D01*
X140279047Y-64022738D01*
X140646070Y-63655715D01*
X140934439Y-63224141D01*
X141133071Y-62744601D01*
X141234332Y-62235525D01*
X141234332Y-61716475D01*
X141890998Y-61716475D01*
X141890998Y-62235525D01*
X141992259Y-62744601D01*
X142190891Y-63224141D01*
X142479260Y-63655715D01*
X142846283Y-64022738D01*
X143277857Y-64311107D01*
X143757397Y-64509739D01*
X144266473Y-64611000D01*
X144785523Y-64611000D01*
X145294599Y-64509739D01*
X145774139Y-64311107D01*
X146205713Y-64022738D01*
X146572736Y-63655715D01*
X146861105Y-63224141D01*
X147059737Y-62744601D01*
X147160998Y-62235525D01*
X147160998Y-61716475D01*
X147817664Y-61716475D01*
X147817664Y-62235525D01*
X147918925Y-62744601D01*
X148117557Y-63224141D01*
X148405926Y-63655715D01*
X148772949Y-64022738D01*
X149204523Y-64311107D01*
X149684063Y-64509739D01*
X150193139Y-64611000D01*
X150712189Y-64611000D01*
X151221265Y-64509739D01*
X151700805Y-64311107D01*
X152132379Y-64022738D01*
X152499402Y-63655715D01*
X152787771Y-63224141D01*
X152986403Y-62744601D01*
X153087664Y-62235525D01*
X153087664Y-61716475D01*
X153744330Y-61716475D01*
X153744330Y-62235525D01*
X153845591Y-62744601D01*
X154044223Y-63224141D01*
X154332592Y-63655715D01*
X154699615Y-64022738D01*
X155131189Y-64311107D01*
X155610729Y-64509739D01*
X156119805Y-64611000D01*
X156638855Y-64611000D01*
X157147931Y-64509739D01*
X157627471Y-64311107D01*
X158059045Y-64022738D01*
X158426068Y-63655715D01*
X158714437Y-63224141D01*
X158913069Y-62744601D01*
X159014330Y-62235525D01*
X159014330Y-61716475D01*
X159671000Y-61716475D01*
X159671000Y-62235525D01*
X159772261Y-62744601D01*
X159970893Y-63224141D01*
X160259262Y-63655715D01*
X160626285Y-64022738D01*
X161057859Y-64311107D01*
X161537399Y-64509739D01*
X162046475Y-64611000D01*
X162565525Y-64611000D01*
X163074601Y-64509739D01*
X163554141Y-64311107D01*
X163985715Y-64022738D01*
X164352738Y-63655715D01*
X164641107Y-63224141D01*
X164839739Y-62744601D01*
X164941000Y-62235525D01*
X164941000Y-61716475D01*
X164839739Y-61207399D01*
X164641107Y-60727859D01*
X164352738Y-60296285D01*
X163985715Y-59929262D01*
X163554141Y-59640893D01*
X163074601Y-59442261D01*
X162565525Y-59341000D01*
X162046475Y-59341000D01*
X161537399Y-59442261D01*
X161057859Y-59640893D01*
X160626285Y-59929262D01*
X160259262Y-60296285D01*
X159970893Y-60727859D01*
X159772261Y-61207399D01*
X159671000Y-61716475D01*
X159014330Y-61716475D01*
X158913069Y-61207399D01*
X158714437Y-60727859D01*
X158426068Y-60296285D01*
X158059045Y-59929262D01*
X157627471Y-59640893D01*
X157147931Y-59442261D01*
X156638855Y-59341000D01*
X156119805Y-59341000D01*
X155610729Y-59442261D01*
X155131189Y-59640893D01*
X154699615Y-59929262D01*
X154332592Y-60296285D01*
X154044223Y-60727859D01*
X153845591Y-61207399D01*
X153744330Y-61716475D01*
X153087664Y-61716475D01*
X152986403Y-61207399D01*
X152787771Y-60727859D01*
X152499402Y-60296285D01*
X152132379Y-59929262D01*
X151700805Y-59640893D01*
X151221265Y-59442261D01*
X150712189Y-59341000D01*
X150193139Y-59341000D01*
X149684063Y-59442261D01*
X149204523Y-59640893D01*
X148772949Y-59929262D01*
X148405926Y-60296285D01*
X148117557Y-60727859D01*
X147918925Y-61207399D01*
X147817664Y-61716475D01*
X147160998Y-61716475D01*
X147059737Y-61207399D01*
X146861105Y-60727859D01*
X146572736Y-60296285D01*
X146205713Y-59929262D01*
X145774139Y-59640893D01*
X145294599Y-59442261D01*
X144785523Y-59341000D01*
X144266473Y-59341000D01*
X143757397Y-59442261D01*
X143277857Y-59640893D01*
X142846283Y-59929262D01*
X142479260Y-60296285D01*
X142190891Y-60727859D01*
X141992259Y-61207399D01*
X141890998Y-61716475D01*
X141234332Y-61716475D01*
X141133071Y-61207399D01*
X140934439Y-60727859D01*
X140646070Y-60296285D01*
X140279047Y-59929262D01*
X139847473Y-59640893D01*
X139367933Y-59442261D01*
X138858857Y-59341000D01*
X138339807Y-59341000D01*
X137830731Y-59442261D01*
X137351191Y-59640893D01*
X136919617Y-59929262D01*
X136552594Y-60296285D01*
X136264225Y-60727859D01*
X136065593Y-61207399D01*
X135964332Y-61716475D01*
X135307666Y-61716475D01*
X135206405Y-61207399D01*
X135007773Y-60727859D01*
X134719404Y-60296285D01*
X134352381Y-59929262D01*
X133920807Y-59640893D01*
X133441267Y-59442261D01*
X132932191Y-59341000D01*
X132413141Y-59341000D01*
X131904065Y-59442261D01*
X131424525Y-59640893D01*
X130992951Y-59929262D01*
X130625928Y-60296285D01*
X130337559Y-60727859D01*
X130138927Y-61207399D01*
X130037666Y-61716475D01*
X129381000Y-61716475D01*
X129279739Y-61207399D01*
X129081107Y-60727859D01*
X128792738Y-60296285D01*
X128425715Y-59929262D01*
X127994141Y-59640893D01*
X127514601Y-59442261D01*
X127005525Y-59341000D01*
X126486475Y-59341000D01*
X125977399Y-59442261D01*
X125497859Y-59640893D01*
X125066285Y-59929262D01*
X124699262Y-60296285D01*
X124410893Y-60727859D01*
X124212261Y-61207399D01*
X124111000Y-61716475D01*
X123113000Y-61716475D01*
X123113000Y-58343000D01*
X165939000Y-58343000D01*
X165939001Y-143841000D01*
G37*
X165939001Y-143841000D02*
X123113000Y-143841000D01*
X123113000Y-139948475D01*
X124111000Y-139948475D01*
X124111000Y-140467525D01*
X124212261Y-140976601D01*
X124410893Y-141456141D01*
X124699262Y-141887715D01*
X125066285Y-142254738D01*
X125497859Y-142543107D01*
X125977399Y-142741739D01*
X126486475Y-142843000D01*
X127005525Y-142843000D01*
X127514601Y-142741739D01*
X127994141Y-142543107D01*
X128425715Y-142254738D01*
X128792738Y-141887715D01*
X128837955Y-141820042D01*
X131690400Y-141820042D01*
X131690400Y-142151958D01*
X131755154Y-142477496D01*
X131882172Y-142784147D01*
X132066575Y-143060125D01*
X132301275Y-143294825D01*
X132577253Y-143479228D01*
X132883904Y-143606246D01*
X133209442Y-143671000D01*
X133541358Y-143671000D01*
X133866896Y-143606246D01*
X134173547Y-143479228D01*
X134449525Y-143294825D01*
X134684225Y-143060125D01*
X134868628Y-142784147D01*
X134995646Y-142477496D01*
X135060400Y-142151958D01*
X135060400Y-141820042D01*
X136452900Y-141820042D01*
X136452900Y-142151958D01*
X136517654Y-142477496D01*
X136644672Y-142784147D01*
X136829075Y-143060125D01*
X137063775Y-143294825D01*
X137339753Y-143479228D01*
X137646404Y-143606246D01*
X137971942Y-143671000D01*
X138303858Y-143671000D01*
X138629396Y-143606246D01*
X138936047Y-143479228D01*
X139212025Y-143294825D01*
X139446725Y-143060125D01*
X139631128Y-142784147D01*
X139758146Y-142477496D01*
X139822900Y-142151958D01*
X139822900Y-141820042D01*
X141215400Y-141820042D01*
X141215400Y-142151958D01*
X141280154Y-142477496D01*
X141407172Y-142784147D01*
X141591575Y-143060125D01*
X141826275Y-143294825D01*
X142102253Y-143479228D01*
X142408904Y-143606246D01*
X142734442Y-143671000D01*
X143066358Y-143671000D01*
X143391896Y-143606246D01*
X143698547Y-143479228D01*
X143974525Y-143294825D01*
X144209225Y-143060125D01*
X144393628Y-142784147D01*
X144520646Y-142477496D01*
X144585400Y-142151958D01*
X144585400Y-141820042D01*
X144520646Y-141494504D01*
X144393628Y-141187853D01*
X144209225Y-140911875D01*
X143974525Y-140677175D01*
X143698547Y-140492772D01*
X143391896Y-140365754D01*
X143066358Y-140301000D01*
X142734442Y-140301000D01*
X142408904Y-140365754D01*
X142102253Y-140492772D01*
X141826275Y-140677175D01*
X141591575Y-140911875D01*
X141407172Y-141187853D01*
X141280154Y-141494504D01*
X141215400Y-141820042D01*
X139822900Y-141820042D01*
X139758146Y-141494504D01*
X139631128Y-141187853D01*
X139446725Y-140911875D01*
X139212025Y-140677175D01*
X138936047Y-140492772D01*
X138629396Y-140365754D01*
X138303858Y-140301000D01*
X137971942Y-140301000D01*
X137646404Y-140365754D01*
X137339753Y-140492772D01*
X137063775Y-140677175D01*
X136829075Y-140911875D01*
X136644672Y-141187853D01*
X136517654Y-141494504D01*
X136452900Y-141820042D01*
X135060400Y-141820042D01*
X134995646Y-141494504D01*
X134868628Y-141187853D01*
X134684225Y-140911875D01*
X134449525Y-140677175D01*
X134173547Y-140492772D01*
X133866896Y-140365754D01*
X133541358Y-140301000D01*
X133209442Y-140301000D01*
X132883904Y-140365754D01*
X132577253Y-140492772D01*
X132301275Y-140677175D01*
X132066575Y-140911875D01*
X131882172Y-141187853D01*
X131755154Y-141494504D01*
X131690400Y-141820042D01*
X128837955Y-141820042D01*
X129081107Y-141456141D01*
X129279739Y-140976601D01*
X129381000Y-140467525D01*
X129381000Y-139948475D01*
X159671000Y-139948475D01*
X159671000Y-140467525D01*
X159772261Y-140976601D01*
X159970893Y-141456141D01*
X160259262Y-141887715D01*
X160626285Y-142254738D01*
X161057859Y-142543107D01*
X161537399Y-142741739D01*
X162046475Y-142843000D01*
X162565525Y-142843000D01*
X163074601Y-142741739D01*
X163554141Y-142543107D01*
X163985715Y-142254738D01*
X164352738Y-141887715D01*
X164641107Y-141456141D01*
X164839739Y-140976601D01*
X164941000Y-140467525D01*
X164941000Y-139948475D01*
X164839739Y-139439399D01*
X164641107Y-138959859D01*
X164352738Y-138528285D01*
X163985715Y-138161262D01*
X163554141Y-137872893D01*
X163074601Y-137674261D01*
X162565525Y-137573000D01*
X162046475Y-137573000D01*
X161537399Y-137674261D01*
X161057859Y-137872893D01*
X160626285Y-138161262D01*
X160259262Y-138528285D01*
X159970893Y-138959859D01*
X159772261Y-139439399D01*
X159671000Y-139948475D01*
X129381000Y-139948475D01*
X129279739Y-139439399D01*
X129081107Y-138959859D01*
X128792738Y-138528285D01*
X128425715Y-138161262D01*
X128245806Y-138041050D01*
X132419955Y-138041050D01*
X132515658Y-138305399D01*
X132805187Y-138446238D01*
X133116629Y-138527885D01*
X133438015Y-138547205D01*
X133756995Y-138503454D01*
X134061311Y-138398314D01*
X134235142Y-138305399D01*
X134330845Y-138041050D01*
X133375400Y-137085605D01*
X132419955Y-138041050D01*
X128245806Y-138041050D01*
X127994141Y-137872893D01*
X127514601Y-137674261D01*
X127005525Y-137573000D01*
X126486475Y-137573000D01*
X125977399Y-137674261D01*
X125497859Y-137872893D01*
X125066285Y-138161262D01*
X124699262Y-138528285D01*
X124410893Y-138959859D01*
X124212261Y-139439399D01*
X124111000Y-139948475D01*
X123113000Y-139948475D01*
X123113000Y-136968615D01*
X131734195Y-136968615D01*
X131777946Y-137287595D01*
X131883086Y-137591911D01*
X131976001Y-137765742D01*
X132240350Y-137861445D01*
X133195795Y-136906000D01*
X133555005Y-136906000D01*
X134510450Y-137861445D01*
X134774799Y-137765742D01*
X134915638Y-137476213D01*
X134997285Y-137164771D01*
X135016605Y-136843385D01*
X134972854Y-136524405D01*
X134867714Y-136220089D01*
X134774799Y-136046258D01*
X134510450Y-135950555D01*
X133555005Y-136906000D01*
X133195795Y-136906000D01*
X132240350Y-135950555D01*
X131976001Y-136046258D01*
X131835162Y-136335787D01*
X131753515Y-136647229D01*
X131734195Y-136968615D01*
X123113000Y-136968615D01*
X123113000Y-135770950D01*
X132419955Y-135770950D01*
X133375400Y-136726395D01*
X134330845Y-135770950D01*
X134235142Y-135506601D01*
X133945613Y-135365762D01*
X133634171Y-135284115D01*
X133312785Y-135264795D01*
X132993805Y-135308546D01*
X132689489Y-135413686D01*
X132515658Y-135506601D01*
X132419955Y-135770950D01*
X123113000Y-135770950D01*
X123113000Y-125283398D01*
X124378200Y-125283398D01*
X124378200Y-125701002D01*
X124459670Y-126110581D01*
X124619480Y-126496397D01*
X124851488Y-126843621D01*
X125146779Y-127138912D01*
X125494003Y-127370920D01*
X125879819Y-127530730D01*
X126289398Y-127612200D01*
X126707002Y-127612200D01*
X127116581Y-127530730D01*
X127502397Y-127370920D01*
X127849621Y-127138912D01*
X128144912Y-126843621D01*
X128376920Y-126496397D01*
X128536730Y-126110581D01*
X128618200Y-125701002D01*
X128618200Y-125283398D01*
X128536730Y-124873819D01*
X128376920Y-124488003D01*
X128144912Y-124140779D01*
X127849621Y-123845488D01*
X127502397Y-123613480D01*
X127116581Y-123453670D01*
X126707002Y-123372200D01*
X126289398Y-123372200D01*
X125879819Y-123453670D01*
X125494003Y-123613480D01*
X125146779Y-123845488D01*
X124851488Y-124140779D01*
X124619480Y-124488003D01*
X124459670Y-124873819D01*
X124378200Y-125283398D01*
X123113000Y-125283398D01*
X123113000Y-105126748D01*
X124378200Y-105126748D01*
X124378200Y-105544352D01*
X124459670Y-105953931D01*
X124619480Y-106339747D01*
X124851488Y-106686971D01*
X125146779Y-106982262D01*
X125494003Y-107214270D01*
X125879819Y-107374080D01*
X126289398Y-107455550D01*
X126707002Y-107455550D01*
X127116581Y-107374080D01*
X127502397Y-107214270D01*
X127849621Y-106982262D01*
X128144912Y-106686971D01*
X128376920Y-106339747D01*
X128536730Y-105953931D01*
X128618200Y-105544352D01*
X128618200Y-105126748D01*
X128536730Y-104717169D01*
X128376920Y-104331353D01*
X128144912Y-103984129D01*
X127849621Y-103688838D01*
X127502397Y-103456830D01*
X127116581Y-103297020D01*
X126707002Y-103215550D01*
X126289398Y-103215550D01*
X125879819Y-103297020D01*
X125494003Y-103456830D01*
X125146779Y-103688838D01*
X124851488Y-103984129D01*
X124619480Y-104331353D01*
X124459670Y-104717169D01*
X124378200Y-105126748D01*
X123113000Y-105126748D01*
X123113000Y-85164098D01*
X124378200Y-85164098D01*
X124378200Y-85581702D01*
X124459670Y-85991281D01*
X124619480Y-86377097D01*
X124851488Y-86724321D01*
X125146779Y-87019612D01*
X125494003Y-87251620D01*
X125879819Y-87411430D01*
X126289398Y-87492900D01*
X126707002Y-87492900D01*
X127116581Y-87411430D01*
X127502397Y-87251620D01*
X127729202Y-87100074D01*
X127729201Y-95167708D01*
X127102659Y-95794251D01*
X126707002Y-95715550D01*
X126289398Y-95715550D01*
X125879819Y-95797020D01*
X125494003Y-95956830D01*
X125146779Y-96188838D01*
X124851488Y-96484129D01*
X124619480Y-96831353D01*
X124459670Y-97217169D01*
X124378200Y-97626748D01*
X124378200Y-98044352D01*
X124459670Y-98453931D01*
X124619480Y-98839747D01*
X124851488Y-99186971D01*
X125146779Y-99482262D01*
X125494003Y-99714270D01*
X125879819Y-99874080D01*
X126289398Y-99955550D01*
X126707002Y-99955550D01*
X127116581Y-99874080D01*
X127502397Y-99714270D01*
X127849621Y-99482262D01*
X128144912Y-99186971D01*
X128376920Y-98839747D01*
X128536730Y-98453931D01*
X128618200Y-98044352D01*
X128618200Y-97626748D01*
X128539499Y-97231091D01*
X128872212Y-96898379D01*
X128872211Y-114181348D01*
X127102659Y-115950901D01*
X126707002Y-115872200D01*
X126289398Y-115872200D01*
X125879819Y-115953670D01*
X125494003Y-116113480D01*
X125146779Y-116345488D01*
X124851488Y-116640779D01*
X124619480Y-116988003D01*
X124459670Y-117373819D01*
X124378200Y-117783398D01*
X124378200Y-118201002D01*
X124459670Y-118610581D01*
X124619480Y-118996397D01*
X124851488Y-119343621D01*
X125146779Y-119638912D01*
X125494003Y-119870920D01*
X125879819Y-120030730D01*
X126289398Y-120112200D01*
X126707002Y-120112200D01*
X127116581Y-120030730D01*
X127502397Y-119870920D01*
X127849621Y-119638912D01*
X128144912Y-119343621D01*
X128376920Y-118996397D01*
X128536730Y-118610581D01*
X128618200Y-118201002D01*
X128618200Y-117839538D01*
X135248200Y-117839538D01*
X135248200Y-118144862D01*
X135307765Y-118444318D01*
X135424608Y-118726400D01*
X135594236Y-118980268D01*
X135810132Y-119196164D01*
X136064000Y-119365792D01*
X136346082Y-119482635D01*
X136645538Y-119542200D01*
X136950862Y-119542200D01*
X137250318Y-119482635D01*
X137532400Y-119365792D01*
X137786268Y-119196164D01*
X138002164Y-118980268D01*
X138171792Y-118726400D01*
X138288635Y-118444318D01*
X138348200Y-118144862D01*
X138348200Y-117839538D01*
X138288635Y-117540082D01*
X138171792Y-117258000D01*
X138002164Y-117004132D01*
X137786268Y-116788236D01*
X137532400Y-116618608D01*
X137250318Y-116501765D01*
X136950862Y-116442200D01*
X136645538Y-116442200D01*
X136346082Y-116501765D01*
X136064000Y-116618608D01*
X135810132Y-116788236D01*
X135594236Y-117004132D01*
X135424608Y-117258000D01*
X135307765Y-117540082D01*
X135248200Y-117839538D01*
X128618200Y-117839538D01*
X128618200Y-117783398D01*
X128539499Y-117387741D01*
X130571344Y-115355897D01*
X130610107Y-115324085D01*
X130737071Y-115169379D01*
X130831413Y-114992876D01*
X130889509Y-114801360D01*
X130904211Y-114652091D01*
X130904211Y-114652090D01*
X130909126Y-114602189D01*
X130904211Y-114552287D01*
X130904211Y-112754620D01*
X139044691Y-112754620D01*
X139165976Y-112976660D01*
X140309600Y-112976660D01*
X140309600Y-111833745D01*
X140563600Y-111833745D01*
X140563600Y-112976660D01*
X141707224Y-112976660D01*
X141828509Y-112754620D01*
X141733670Y-112489779D01*
X141588985Y-112248529D01*
X141400014Y-112040141D01*
X141174020Y-111872623D01*
X140919687Y-111752414D01*
X140785639Y-111711756D01*
X140563600Y-111833745D01*
X140309600Y-111833745D01*
X140087561Y-111711756D01*
X139953513Y-111752414D01*
X139699180Y-111872623D01*
X139473186Y-112040141D01*
X139284215Y-112248529D01*
X139139530Y-112489779D01*
X139044691Y-112754620D01*
X130904211Y-112754620D01*
X130904211Y-97682888D01*
X135248200Y-97682888D01*
X135248200Y-97988212D01*
X135307765Y-98287668D01*
X135424608Y-98569750D01*
X135594236Y-98823618D01*
X135810132Y-99039514D01*
X136064000Y-99209142D01*
X136346082Y-99325985D01*
X136645538Y-99385550D01*
X136950862Y-99385550D01*
X137250318Y-99325985D01*
X137532400Y-99209142D01*
X137786268Y-99039514D01*
X138002164Y-98823618D01*
X138171792Y-98569750D01*
X138288635Y-98287668D01*
X138348200Y-97988212D01*
X138348200Y-97682888D01*
X138288635Y-97383432D01*
X138171792Y-97101350D01*
X138002164Y-96847482D01*
X137786268Y-96631586D01*
X137532400Y-96461958D01*
X137250318Y-96345115D01*
X136950862Y-96285550D01*
X136645538Y-96285550D01*
X136346082Y-96345115D01*
X136064000Y-96461958D01*
X135810132Y-96631586D01*
X135594236Y-96847482D01*
X135424608Y-97101350D01*
X135307765Y-97383432D01*
X135248200Y-97682888D01*
X130904211Y-97682888D01*
X130904211Y-88451929D01*
X134135902Y-85220238D01*
X135248200Y-85220238D01*
X135248200Y-85525562D01*
X135307765Y-85825018D01*
X135424608Y-86107100D01*
X135594236Y-86360968D01*
X135810132Y-86576864D01*
X136064000Y-86746492D01*
X136346082Y-86863335D01*
X136645538Y-86922900D01*
X136911360Y-86922900D01*
X139420600Y-89432141D01*
X139420601Y-91196223D01*
X139321963Y-91294861D01*
X139164920Y-91529893D01*
X139056747Y-91791046D01*
X139001600Y-92068285D01*
X139001600Y-92350955D01*
X139056747Y-92628194D01*
X139164920Y-92889347D01*
X139321963Y-93124379D01*
X139521841Y-93324257D01*
X139756873Y-93481300D01*
X140018026Y-93589473D01*
X140187229Y-93623130D01*
X140018026Y-93656787D01*
X139756873Y-93764960D01*
X139521841Y-93922003D01*
X139321963Y-94121881D01*
X139164920Y-94356913D01*
X139056747Y-94618066D01*
X139001600Y-94895305D01*
X139001600Y-95177975D01*
X139056747Y-95455214D01*
X139164920Y-95716367D01*
X139321963Y-95951399D01*
X139420601Y-96050037D01*
X139420600Y-97976378D01*
X136115068Y-101281911D01*
X136076305Y-101313723D01*
X135949341Y-101468429D01*
X135859920Y-101635725D01*
X135854999Y-101644932D01*
X135796902Y-101836449D01*
X135777285Y-102035619D01*
X135782201Y-102085530D01*
X135782200Y-104159518D01*
X135594236Y-104347482D01*
X135424608Y-104601350D01*
X135307765Y-104883432D01*
X135248200Y-105182888D01*
X135248200Y-105488212D01*
X135307765Y-105787668D01*
X135424608Y-106069750D01*
X135594236Y-106323618D01*
X135810132Y-106539514D01*
X136064000Y-106709142D01*
X136346082Y-106825985D01*
X136645538Y-106885550D01*
X136950862Y-106885550D01*
X137250318Y-106825985D01*
X137532400Y-106709142D01*
X137786268Y-106539514D01*
X138002164Y-106323618D01*
X138171792Y-106069750D01*
X138288635Y-105787668D01*
X138348200Y-105488212D01*
X138348200Y-105182888D01*
X138288635Y-104883432D01*
X138171792Y-104601350D01*
X138002164Y-104347482D01*
X137814200Y-104159518D01*
X137814200Y-102456459D01*
X141119733Y-99150927D01*
X141158496Y-99119115D01*
X141285460Y-98964409D01*
X141351000Y-98841791D01*
X141351000Y-101541763D01*
X141116327Y-101384960D01*
X140855174Y-101276787D01*
X140577935Y-101221640D01*
X140295265Y-101221640D01*
X140018026Y-101276787D01*
X139756873Y-101384960D01*
X139521841Y-101542003D01*
X139321963Y-101741881D01*
X139164920Y-101976913D01*
X139056747Y-102238066D01*
X139001600Y-102515305D01*
X139001600Y-102797975D01*
X139056747Y-103075214D01*
X139164920Y-103336367D01*
X139321963Y-103571399D01*
X139420600Y-103670036D01*
X139420601Y-104470263D01*
X139321963Y-104568901D01*
X139164920Y-104803933D01*
X139056747Y-105065086D01*
X139001600Y-105342325D01*
X139001600Y-105624995D01*
X139056747Y-105902234D01*
X139164920Y-106163387D01*
X139321963Y-106398419D01*
X139521841Y-106598297D01*
X139756873Y-106755340D01*
X140018026Y-106863513D01*
X140295265Y-106918660D01*
X140577935Y-106918660D01*
X140855174Y-106863513D01*
X141116327Y-106755340D01*
X141351359Y-106598297D01*
X141366608Y-106583048D01*
X144343065Y-109559506D01*
X144362940Y-109596690D01*
X144489904Y-109751396D01*
X144644610Y-109878360D01*
X144681796Y-109898236D01*
X145694500Y-110910941D01*
X145694500Y-111050435D01*
X145749647Y-111327674D01*
X145857820Y-111588827D01*
X146014863Y-111823859D01*
X146214741Y-112023737D01*
X146447259Y-112179100D01*
X146214741Y-112334463D01*
X146014863Y-112534341D01*
X145857820Y-112769373D01*
X145749647Y-113030526D01*
X145694500Y-113307765D01*
X145694500Y-113447259D01*
X141452600Y-117689160D01*
X141452600Y-116944076D01*
X141551237Y-116845439D01*
X141708280Y-116610407D01*
X141816453Y-116349254D01*
X141871600Y-116072015D01*
X141871600Y-115789345D01*
X141816453Y-115512106D01*
X141708280Y-115250953D01*
X141551237Y-115015921D01*
X141351359Y-114816043D01*
X141116327Y-114659000D01*
X140855174Y-114550827D01*
X140577935Y-114495680D01*
X140563602Y-114495680D01*
X140563602Y-114373576D01*
X140785639Y-114495564D01*
X140919687Y-114454906D01*
X141174020Y-114334697D01*
X141400014Y-114167179D01*
X141588985Y-113958791D01*
X141733670Y-113717541D01*
X141828509Y-113452700D01*
X141707224Y-113230660D01*
X140563600Y-113230660D01*
X140563600Y-113250660D01*
X140309600Y-113250660D01*
X140309600Y-113230660D01*
X139165976Y-113230660D01*
X139044691Y-113452700D01*
X139139530Y-113717541D01*
X139284215Y-113958791D01*
X139473186Y-114167179D01*
X139699180Y-114334697D01*
X139953513Y-114454906D01*
X140087561Y-114495564D01*
X140309598Y-114373576D01*
X140309598Y-114495680D01*
X140295265Y-114495680D01*
X140018026Y-114550827D01*
X139756873Y-114659000D01*
X139521841Y-114816043D01*
X139321963Y-115015921D01*
X139164920Y-115250953D01*
X139056747Y-115512106D01*
X139001600Y-115789345D01*
X139001600Y-116072015D01*
X139056747Y-116349254D01*
X139164920Y-116610407D01*
X139321963Y-116845439D01*
X139420601Y-116944077D01*
X139420600Y-117968559D01*
X136115068Y-121274092D01*
X136076305Y-121305904D01*
X135949341Y-121460610D01*
X135915320Y-121524260D01*
X135854999Y-121637113D01*
X135796902Y-121828630D01*
X135777285Y-122027800D01*
X135782201Y-122077712D01*
X135782200Y-124316168D01*
X135594236Y-124504132D01*
X135424608Y-124758000D01*
X135307765Y-125040082D01*
X135248200Y-125339538D01*
X135248200Y-125644862D01*
X135307765Y-125944318D01*
X135424608Y-126226400D01*
X135594236Y-126480268D01*
X135810132Y-126696164D01*
X136064000Y-126865792D01*
X136346082Y-126982635D01*
X136645538Y-127042200D01*
X136950862Y-127042200D01*
X137250318Y-126982635D01*
X137532400Y-126865792D01*
X137786268Y-126696164D01*
X138002164Y-126480268D01*
X138171792Y-126226400D01*
X138288635Y-125944318D01*
X138348200Y-125644862D01*
X138348200Y-125339538D01*
X138288635Y-125040082D01*
X138171792Y-124758000D01*
X138002164Y-124504132D01*
X137814200Y-124316168D01*
X137814200Y-122448640D01*
X139420600Y-120842240D01*
X139420601Y-122369399D01*
X139420600Y-122369409D01*
X139420600Y-122537284D01*
X139321963Y-122635921D01*
X139164920Y-122870953D01*
X139056747Y-123132106D01*
X139001600Y-123409345D01*
X139001600Y-123692015D01*
X139056747Y-123969254D01*
X139164920Y-124230407D01*
X139321963Y-124465439D01*
X139420600Y-124564076D01*
X139420601Y-125364303D01*
X139321963Y-125462941D01*
X139164920Y-125697973D01*
X139056747Y-125959126D01*
X139001600Y-126236365D01*
X139001600Y-126519035D01*
X139056747Y-126796274D01*
X139164920Y-127057427D01*
X139321963Y-127292459D01*
X139521841Y-127492337D01*
X139756873Y-127649380D01*
X140018026Y-127757553D01*
X140295265Y-127812700D01*
X140577935Y-127812700D01*
X140855174Y-127757553D01*
X141116327Y-127649380D01*
X141351359Y-127492337D01*
X141551237Y-127292459D01*
X141708280Y-127057427D01*
X141816453Y-126796274D01*
X141871600Y-126519035D01*
X141871600Y-126236365D01*
X141816453Y-125959126D01*
X141708280Y-125697973D01*
X141551237Y-125462941D01*
X141452600Y-125364304D01*
X141452600Y-124564076D01*
X141551237Y-124465439D01*
X141708280Y-124230407D01*
X141816453Y-123969254D01*
X141871600Y-123692015D01*
X141871600Y-123409345D01*
X141816453Y-123132106D01*
X141708280Y-122870953D01*
X141551237Y-122635921D01*
X141452600Y-122537284D01*
X141452600Y-120909837D01*
X141463298Y-120874570D01*
X141478000Y-120725301D01*
X141482915Y-120675401D01*
X141478000Y-120625499D01*
X141478000Y-120537440D01*
X145726107Y-116289333D01*
X145749647Y-116407674D01*
X145857820Y-116668827D01*
X146014863Y-116903859D01*
X146214741Y-117103737D01*
X146447259Y-117259100D01*
X146214741Y-117414463D01*
X146014863Y-117614341D01*
X145857820Y-117849373D01*
X145749647Y-118110526D01*
X145694500Y-118387765D01*
X145694500Y-118670435D01*
X145749647Y-118947674D01*
X145857820Y-119208827D01*
X146014863Y-119443859D01*
X146214741Y-119643737D01*
X146447259Y-119799100D01*
X146214741Y-119954463D01*
X146014863Y-120154341D01*
X145857820Y-120389373D01*
X145749647Y-120650526D01*
X145694500Y-120927765D01*
X145694500Y-121210435D01*
X145749647Y-121487674D01*
X145857820Y-121748827D01*
X146014863Y-121983859D01*
X146214741Y-122183737D01*
X146447259Y-122339100D01*
X146214741Y-122494463D01*
X146014863Y-122694341D01*
X145857820Y-122929373D01*
X145749647Y-123190526D01*
X145694500Y-123467765D01*
X145694500Y-123750435D01*
X145749647Y-124027674D01*
X145857820Y-124288827D01*
X146014863Y-124523859D01*
X146214741Y-124723737D01*
X146447259Y-124879100D01*
X146214741Y-125034463D01*
X146014863Y-125234341D01*
X145857820Y-125469373D01*
X145749647Y-125730526D01*
X145694500Y-126007765D01*
X145694500Y-126290435D01*
X145749647Y-126567674D01*
X145857820Y-126828827D01*
X146014863Y-127063859D01*
X146214741Y-127263737D01*
X146447259Y-127419100D01*
X146214741Y-127574463D01*
X146014863Y-127774341D01*
X145857820Y-128009373D01*
X145749647Y-128270526D01*
X145694500Y-128547765D01*
X145694500Y-128830435D01*
X145749647Y-129107674D01*
X145857820Y-129368827D01*
X146014863Y-129603859D01*
X146214741Y-129803737D01*
X146447259Y-129959100D01*
X146214741Y-130114463D01*
X146014863Y-130314341D01*
X145857820Y-130549373D01*
X145749647Y-130810526D01*
X145694500Y-131087765D01*
X145694500Y-131370435D01*
X145749647Y-131647674D01*
X145857820Y-131908827D01*
X146014863Y-132143859D01*
X146214741Y-132343737D01*
X146447259Y-132499100D01*
X146214741Y-132654463D01*
X146116104Y-132753100D01*
X145213541Y-132753100D01*
X142676212Y-130215772D01*
X142644396Y-130177004D01*
X142489690Y-130050040D01*
X142313187Y-129955698D01*
X142121671Y-129897602D01*
X141972402Y-129882900D01*
X141922500Y-129877985D01*
X141872598Y-129882900D01*
X139267301Y-129882900D01*
X139217399Y-129877985D01*
X139018229Y-129897602D01*
X138826713Y-129955698D01*
X138650210Y-130050040D01*
X138495504Y-130177004D01*
X138463692Y-130215767D01*
X136400668Y-132278792D01*
X136361905Y-132310604D01*
X136234941Y-132465310D01*
X136217778Y-132497420D01*
X136140599Y-132641813D01*
X136082502Y-132833330D01*
X136062885Y-133032500D01*
X136067801Y-133082411D01*
X136067800Y-135801998D01*
X136062885Y-135851900D01*
X136067800Y-135901801D01*
X136082502Y-136051070D01*
X136140598Y-136242586D01*
X136234940Y-136419090D01*
X136361904Y-136573796D01*
X136400672Y-136605612D01*
X136509493Y-136714434D01*
X136503410Y-136745017D01*
X136503410Y-137066983D01*
X136566222Y-137382763D01*
X136689433Y-137680222D01*
X136868308Y-137947927D01*
X137095973Y-138175592D01*
X137363678Y-138354467D01*
X137661137Y-138477678D01*
X137976917Y-138540490D01*
X138298883Y-138540490D01*
X138614663Y-138477678D01*
X138912122Y-138354467D01*
X139179827Y-138175592D01*
X139407492Y-137947927D01*
X139586367Y-137680222D01*
X139709578Y-137382763D01*
X139772390Y-137066983D01*
X139772390Y-136745017D01*
X139709578Y-136429237D01*
X139586367Y-136131778D01*
X139407492Y-135864073D01*
X139179827Y-135636408D01*
X138912122Y-135457533D01*
X138614663Y-135334322D01*
X138298883Y-135271510D01*
X138099800Y-135271510D01*
X138099800Y-134346740D01*
X139044691Y-134346740D01*
X139139530Y-134611581D01*
X139284215Y-134852831D01*
X139473186Y-135061219D01*
X139699180Y-135228737D01*
X139953513Y-135348946D01*
X140087561Y-135389604D01*
X140309600Y-135267615D01*
X140309600Y-134124700D01*
X139165976Y-134124700D01*
X139044691Y-134346740D01*
X138099800Y-134346740D01*
X138099800Y-133648660D01*
X139044691Y-133648660D01*
X139165976Y-133870700D01*
X140309600Y-133870700D01*
X140309600Y-132727785D01*
X140563600Y-132727785D01*
X140563600Y-133870700D01*
X141707224Y-133870700D01*
X141828509Y-133648660D01*
X141733670Y-133383819D01*
X141588985Y-133142569D01*
X141400014Y-132934181D01*
X141174020Y-132766663D01*
X140919687Y-132646454D01*
X140785639Y-132605796D01*
X140563600Y-132727785D01*
X140309600Y-132727785D01*
X140087561Y-132605796D01*
X139953513Y-132646454D01*
X139699180Y-132766663D01*
X139473186Y-132934181D01*
X139284215Y-133142569D01*
X139139530Y-133383819D01*
X139044691Y-133648660D01*
X138099800Y-133648660D01*
X138099800Y-133453340D01*
X139638241Y-131914900D01*
X141501660Y-131914900D01*
X143952759Y-134366000D01*
X142775629Y-134366000D01*
X142402473Y-134402753D01*
X141923681Y-134547992D01*
X141700151Y-134667472D01*
X141733670Y-134611581D01*
X141828509Y-134346740D01*
X141707224Y-134124700D01*
X140563600Y-134124700D01*
X140563600Y-135267615D01*
X140785639Y-135389604D01*
X140883340Y-135359970D01*
X140778249Y-135488024D01*
X140542392Y-135929281D01*
X140397153Y-136408073D01*
X140348111Y-136906000D01*
X140397153Y-137403927D01*
X140542392Y-137882719D01*
X140778249Y-138323976D01*
X141095659Y-138710741D01*
X141482424Y-139028151D01*
X141923681Y-139264008D01*
X142402473Y-139409247D01*
X142775629Y-139446000D01*
X150382929Y-139446000D01*
X150507700Y-139458289D01*
X150632471Y-139446000D01*
X151005627Y-139409247D01*
X151484419Y-139264008D01*
X151925676Y-139028151D01*
X152312441Y-138710741D01*
X152391986Y-138613815D01*
X154222120Y-136783682D01*
X154319041Y-136704141D01*
X154636451Y-136317376D01*
X154872308Y-135876119D01*
X155017547Y-135397327D01*
X155054300Y-135024171D01*
X155054300Y-135024170D01*
X155066589Y-134899400D01*
X155054300Y-134774629D01*
X155054300Y-103147765D01*
X160934500Y-103147765D01*
X160934500Y-103430435D01*
X160989647Y-103707674D01*
X161097820Y-103968827D01*
X161254863Y-104203859D01*
X161454741Y-104403737D01*
X161687259Y-104559100D01*
X161454741Y-104714463D01*
X161254863Y-104914341D01*
X161097820Y-105149373D01*
X160989647Y-105410526D01*
X160934500Y-105687765D01*
X160934500Y-105970435D01*
X160989647Y-106247674D01*
X161097820Y-106508827D01*
X161254863Y-106743859D01*
X161454741Y-106943737D01*
X161687259Y-107099100D01*
X161454741Y-107254463D01*
X161254863Y-107454341D01*
X161097820Y-107689373D01*
X160989647Y-107950526D01*
X160934500Y-108227765D01*
X160934500Y-108510435D01*
X160989647Y-108787674D01*
X161097820Y-109048827D01*
X161254863Y-109283859D01*
X161454741Y-109483737D01*
X161687259Y-109639100D01*
X161454741Y-109794463D01*
X161254863Y-109994341D01*
X161097820Y-110229373D01*
X160989647Y-110490526D01*
X160934500Y-110767765D01*
X160934500Y-111050435D01*
X160989647Y-111327674D01*
X161097820Y-111588827D01*
X161254863Y-111823859D01*
X161454741Y-112023737D01*
X161687259Y-112179100D01*
X161454741Y-112334463D01*
X161254863Y-112534341D01*
X161097820Y-112769373D01*
X160989647Y-113030526D01*
X160934500Y-113307765D01*
X160934500Y-113590435D01*
X160989647Y-113867674D01*
X161097820Y-114128827D01*
X161254863Y-114363859D01*
X161454741Y-114563737D01*
X161687259Y-114719100D01*
X161454741Y-114874463D01*
X161254863Y-115074341D01*
X161097820Y-115309373D01*
X160989647Y-115570526D01*
X160934500Y-115847765D01*
X160934500Y-116130435D01*
X160989647Y-116407674D01*
X161097820Y-116668827D01*
X161254863Y-116903859D01*
X161454741Y-117103737D01*
X161687259Y-117259100D01*
X161454741Y-117414463D01*
X161254863Y-117614341D01*
X161097820Y-117849373D01*
X160989647Y-118110526D01*
X160934500Y-118387765D01*
X160934500Y-118670435D01*
X160989647Y-118947674D01*
X161097820Y-119208827D01*
X161254863Y-119443859D01*
X161454741Y-119643737D01*
X161687259Y-119799100D01*
X161454741Y-119954463D01*
X161254863Y-120154341D01*
X161097820Y-120389373D01*
X160989647Y-120650526D01*
X160934500Y-120927765D01*
X160934500Y-121210435D01*
X160989647Y-121487674D01*
X161097820Y-121748827D01*
X161254863Y-121983859D01*
X161454741Y-122183737D01*
X161687259Y-122339100D01*
X161454741Y-122494463D01*
X161254863Y-122694341D01*
X161097820Y-122929373D01*
X160989647Y-123190526D01*
X160934500Y-123467765D01*
X160934500Y-123750435D01*
X160989647Y-124027674D01*
X161097820Y-124288827D01*
X161254863Y-124523859D01*
X161454741Y-124723737D01*
X161687259Y-124879100D01*
X161454741Y-125034463D01*
X161254863Y-125234341D01*
X161097820Y-125469373D01*
X160989647Y-125730526D01*
X160934500Y-126007765D01*
X160934500Y-126290435D01*
X160989647Y-126567674D01*
X161097820Y-126828827D01*
X161254863Y-127063859D01*
X161454741Y-127263737D01*
X161687259Y-127419100D01*
X161454741Y-127574463D01*
X161254863Y-127774341D01*
X161097820Y-128009373D01*
X160989647Y-128270526D01*
X160934500Y-128547765D01*
X160934500Y-128830435D01*
X160989647Y-129107674D01*
X161097820Y-129368827D01*
X161254863Y-129603859D01*
X161454741Y-129803737D01*
X161687259Y-129959100D01*
X161454741Y-130114463D01*
X161254863Y-130314341D01*
X161097820Y-130549373D01*
X160989647Y-130810526D01*
X160934500Y-131087765D01*
X160934500Y-131370435D01*
X160989647Y-131647674D01*
X161097820Y-131908827D01*
X161254863Y-132143859D01*
X161454741Y-132343737D01*
X161687259Y-132499100D01*
X161454741Y-132654463D01*
X161254863Y-132854341D01*
X161097820Y-133089373D01*
X160989647Y-133350526D01*
X160934500Y-133627765D01*
X160934500Y-133910435D01*
X160989647Y-134187674D01*
X161097820Y-134448827D01*
X161254863Y-134683859D01*
X161454741Y-134883737D01*
X161689773Y-135040780D01*
X161950926Y-135148953D01*
X162228165Y-135204100D01*
X162510835Y-135204100D01*
X162788074Y-135148953D01*
X163049227Y-135040780D01*
X163284259Y-134883737D01*
X163484137Y-134683859D01*
X163641180Y-134448827D01*
X163749353Y-134187674D01*
X163804500Y-133910435D01*
X163804500Y-133627765D01*
X163749353Y-133350526D01*
X163641180Y-133089373D01*
X163484137Y-132854341D01*
X163284259Y-132654463D01*
X163051741Y-132499100D01*
X163284259Y-132343737D01*
X163484137Y-132143859D01*
X163641180Y-131908827D01*
X163749353Y-131647674D01*
X163804500Y-131370435D01*
X163804500Y-131087765D01*
X163749353Y-130810526D01*
X163641180Y-130549373D01*
X163484137Y-130314341D01*
X163284259Y-130114463D01*
X163051741Y-129959100D01*
X163284259Y-129803737D01*
X163484137Y-129603859D01*
X163641180Y-129368827D01*
X163749353Y-129107674D01*
X163804500Y-128830435D01*
X163804500Y-128547765D01*
X163749353Y-128270526D01*
X163641180Y-128009373D01*
X163484137Y-127774341D01*
X163284259Y-127574463D01*
X163051741Y-127419100D01*
X163284259Y-127263737D01*
X163484137Y-127063859D01*
X163641180Y-126828827D01*
X163749353Y-126567674D01*
X163804500Y-126290435D01*
X163804500Y-126007765D01*
X163749353Y-125730526D01*
X163641180Y-125469373D01*
X163484137Y-125234341D01*
X163284259Y-125034463D01*
X163051741Y-124879100D01*
X163284259Y-124723737D01*
X163484137Y-124523859D01*
X163641180Y-124288827D01*
X163749353Y-124027674D01*
X163804500Y-123750435D01*
X163804500Y-123467765D01*
X163749353Y-123190526D01*
X163641180Y-122929373D01*
X163484137Y-122694341D01*
X163284259Y-122494463D01*
X163051741Y-122339100D01*
X163284259Y-122183737D01*
X163484137Y-121983859D01*
X163641180Y-121748827D01*
X163749353Y-121487674D01*
X163804500Y-121210435D01*
X163804500Y-120927765D01*
X163749353Y-120650526D01*
X163641180Y-120389373D01*
X163484137Y-120154341D01*
X163284259Y-119954463D01*
X163051741Y-119799100D01*
X163284259Y-119643737D01*
X163484137Y-119443859D01*
X163641180Y-119208827D01*
X163749353Y-118947674D01*
X163804500Y-118670435D01*
X163804500Y-118387765D01*
X163749353Y-118110526D01*
X163641180Y-117849373D01*
X163484137Y-117614341D01*
X163284259Y-117414463D01*
X163051741Y-117259100D01*
X163284259Y-117103737D01*
X163484137Y-116903859D01*
X163641180Y-116668827D01*
X163749353Y-116407674D01*
X163804500Y-116130435D01*
X163804500Y-115847765D01*
X163749353Y-115570526D01*
X163641180Y-115309373D01*
X163484137Y-115074341D01*
X163284259Y-114874463D01*
X163051741Y-114719100D01*
X163284259Y-114563737D01*
X163484137Y-114363859D01*
X163641180Y-114128827D01*
X163749353Y-113867674D01*
X163804500Y-113590435D01*
X163804500Y-113307765D01*
X163749353Y-113030526D01*
X163641180Y-112769373D01*
X163484137Y-112534341D01*
X163284259Y-112334463D01*
X163051741Y-112179100D01*
X163284259Y-112023737D01*
X163484137Y-111823859D01*
X163641180Y-111588827D01*
X163749353Y-111327674D01*
X163804500Y-111050435D01*
X163804500Y-110767765D01*
X163749353Y-110490526D01*
X163641180Y-110229373D01*
X163484137Y-109994341D01*
X163284259Y-109794463D01*
X163051741Y-109639100D01*
X163284259Y-109483737D01*
X163484137Y-109283859D01*
X163641180Y-109048827D01*
X163749353Y-108787674D01*
X163804500Y-108510435D01*
X163804500Y-108227765D01*
X163749353Y-107950526D01*
X163641180Y-107689373D01*
X163484137Y-107454341D01*
X163284259Y-107254463D01*
X163051741Y-107099100D01*
X163284259Y-106943737D01*
X163484137Y-106743859D01*
X163641180Y-106508827D01*
X163749353Y-106247674D01*
X163804500Y-105970435D01*
X163804500Y-105687765D01*
X163749353Y-105410526D01*
X163641180Y-105149373D01*
X163484137Y-104914341D01*
X163284259Y-104714463D01*
X163051741Y-104559100D01*
X163284259Y-104403737D01*
X163484137Y-104203859D01*
X163641180Y-103968827D01*
X163749353Y-103707674D01*
X163804500Y-103430435D01*
X163804500Y-103147765D01*
X163749353Y-102870526D01*
X163641180Y-102609373D01*
X163484137Y-102374341D01*
X163284259Y-102174463D01*
X163049227Y-102017420D01*
X163038635Y-102013033D01*
X163224631Y-101901485D01*
X163433019Y-101712514D01*
X163600537Y-101486520D01*
X163720746Y-101232187D01*
X163761404Y-101098139D01*
X163639415Y-100876100D01*
X162496500Y-100876100D01*
X162496500Y-100896100D01*
X162242500Y-100896100D01*
X162242500Y-100876100D01*
X161099585Y-100876100D01*
X160977596Y-101098139D01*
X161018254Y-101232187D01*
X161138463Y-101486520D01*
X161305981Y-101712514D01*
X161514369Y-101901485D01*
X161700365Y-102013033D01*
X161689773Y-102017420D01*
X161454741Y-102174463D01*
X161254863Y-102374341D01*
X161097820Y-102609373D01*
X160989647Y-102870526D01*
X160934500Y-103147765D01*
X155054300Y-103147765D01*
X155054300Y-95641364D01*
X155066588Y-95516600D01*
X155054300Y-95391836D01*
X155054300Y-95391830D01*
X155017547Y-95018674D01*
X155007860Y-94986738D01*
X154947758Y-94788608D01*
X154872308Y-94539882D01*
X154636451Y-94098625D01*
X154385397Y-93792715D01*
X154603727Y-93702280D01*
X154834325Y-93548200D01*
X155363089Y-93548200D01*
X155555673Y-93676880D01*
X155816826Y-93785053D01*
X156094065Y-93840200D01*
X156376735Y-93840200D01*
X156653974Y-93785053D01*
X156915127Y-93676880D01*
X157107711Y-93548200D01*
X157351260Y-93548200D01*
X161191792Y-97388733D01*
X161097820Y-97529373D01*
X160989647Y-97790526D01*
X160934500Y-98067765D01*
X160934500Y-98350435D01*
X160989647Y-98627674D01*
X161097820Y-98888827D01*
X161254863Y-99123859D01*
X161454741Y-99323737D01*
X161689773Y-99480780D01*
X161700365Y-99485167D01*
X161514369Y-99596715D01*
X161305981Y-99785686D01*
X161138463Y-100011680D01*
X161018254Y-100266013D01*
X160977596Y-100400061D01*
X161099585Y-100622100D01*
X162242500Y-100622100D01*
X162242500Y-100602100D01*
X162496500Y-100602100D01*
X162496500Y-100622100D01*
X163639415Y-100622100D01*
X163761404Y-100400061D01*
X163720746Y-100266013D01*
X163600537Y-100011680D01*
X163433019Y-99785686D01*
X163224631Y-99596715D01*
X163038635Y-99485167D01*
X163049227Y-99480780D01*
X163284259Y-99323737D01*
X163484137Y-99123859D01*
X163641180Y-98888827D01*
X163749353Y-98627674D01*
X163804500Y-98350435D01*
X163804500Y-98067765D01*
X163749353Y-97790526D01*
X163641180Y-97529373D01*
X163484137Y-97294341D01*
X163385500Y-97195704D01*
X163385500Y-97179493D01*
X163390414Y-97129599D01*
X163385500Y-97079705D01*
X163385500Y-97079698D01*
X163371487Y-96937420D01*
X163370798Y-96930428D01*
X163340743Y-96831353D01*
X163312702Y-96738913D01*
X163218360Y-96562410D01*
X163091396Y-96407704D01*
X163052633Y-96375892D01*
X160074643Y-93397902D01*
X163042303Y-93397902D01*
X163113886Y-93641871D01*
X163369396Y-93762771D01*
X163643584Y-93831500D01*
X163925912Y-93845417D01*
X164205530Y-93803987D01*
X164471692Y-93708803D01*
X164596914Y-93641871D01*
X164668497Y-93397902D01*
X163855400Y-92584805D01*
X163042303Y-93397902D01*
X160074643Y-93397902D01*
X159152453Y-92475712D01*
X162415183Y-92475712D01*
X162456613Y-92755330D01*
X162551797Y-93021492D01*
X162618729Y-93146714D01*
X162862698Y-93218297D01*
X163675795Y-92405200D01*
X164035005Y-92405200D01*
X164848102Y-93218297D01*
X165092071Y-93146714D01*
X165212971Y-92891204D01*
X165281700Y-92617016D01*
X165295617Y-92334688D01*
X165254187Y-92055070D01*
X165159003Y-91788908D01*
X165092071Y-91663686D01*
X164848102Y-91592103D01*
X164035005Y-92405200D01*
X163675795Y-92405200D01*
X162862698Y-91592103D01*
X162618729Y-91663686D01*
X162497829Y-91919196D01*
X162429100Y-92193384D01*
X162415183Y-92475712D01*
X159152453Y-92475712D01*
X158525812Y-91849072D01*
X158493996Y-91810304D01*
X158339290Y-91683340D01*
X158162787Y-91588998D01*
X157971271Y-91530902D01*
X157822002Y-91516200D01*
X157772100Y-91511285D01*
X157722198Y-91516200D01*
X157367249Y-91516200D01*
X157350037Y-91490441D01*
X157272094Y-91412498D01*
X163042303Y-91412498D01*
X163855400Y-92225595D01*
X164668497Y-91412498D01*
X164596914Y-91168529D01*
X164341404Y-91047629D01*
X164067216Y-90978900D01*
X163784888Y-90964983D01*
X163505270Y-91006413D01*
X163239108Y-91101597D01*
X163113886Y-91168529D01*
X163042303Y-91412498D01*
X157272094Y-91412498D01*
X157150159Y-91290563D01*
X156915127Y-91133520D01*
X156653974Y-91025347D01*
X156376735Y-90970200D01*
X156094065Y-90970200D01*
X155816826Y-91025347D01*
X155555673Y-91133520D01*
X155320641Y-91290563D01*
X155120763Y-91490441D01*
X155103551Y-91516200D01*
X155038877Y-91516200D01*
X155038637Y-91515841D01*
X154838759Y-91315963D01*
X154603727Y-91158920D01*
X154342574Y-91050747D01*
X154311919Y-91044649D01*
X154350551Y-90997576D01*
X154586408Y-90556319D01*
X154661598Y-90308450D01*
X154731648Y-90077527D01*
X154780689Y-89579600D01*
X154768400Y-89454826D01*
X154768400Y-85248129D01*
X154760124Y-85164098D01*
X160408400Y-85164098D01*
X160408400Y-85581702D01*
X160489870Y-85991281D01*
X160649680Y-86377097D01*
X160881688Y-86724321D01*
X161176979Y-87019612D01*
X161524203Y-87251620D01*
X161910019Y-87411430D01*
X162319598Y-87492900D01*
X162737202Y-87492900D01*
X163146781Y-87411430D01*
X163532597Y-87251620D01*
X163879821Y-87019612D01*
X164175112Y-86724321D01*
X164407120Y-86377097D01*
X164566930Y-85991281D01*
X164648400Y-85581702D01*
X164648400Y-85164098D01*
X164566930Y-84754519D01*
X164407120Y-84368703D01*
X164175112Y-84021479D01*
X163879821Y-83726188D01*
X163532597Y-83494180D01*
X163146781Y-83334370D01*
X162737202Y-83252900D01*
X162319598Y-83252900D01*
X161910019Y-83334370D01*
X161524203Y-83494180D01*
X161176979Y-83726188D01*
X160881688Y-84021479D01*
X160649680Y-84368703D01*
X160489870Y-84754519D01*
X160408400Y-85164098D01*
X154760124Y-85164098D01*
X154731647Y-84874973D01*
X154586408Y-84396181D01*
X154350551Y-83954924D01*
X154033141Y-83568159D01*
X153646376Y-83250749D01*
X153205119Y-83014892D01*
X152726327Y-82869653D01*
X152228400Y-82820611D01*
X151730474Y-82869653D01*
X151251682Y-83014892D01*
X150810425Y-83250749D01*
X150423660Y-83568159D01*
X150106250Y-83954924D01*
X149913800Y-84314972D01*
X149913800Y-78930828D01*
X150106250Y-79290875D01*
X150423660Y-79677640D01*
X150810425Y-79995050D01*
X151251682Y-80230908D01*
X151730474Y-80376147D01*
X152228400Y-80425189D01*
X152726326Y-80376147D01*
X153205118Y-80230908D01*
X153646375Y-79995050D01*
X153936224Y-79757177D01*
X156029303Y-77664098D01*
X160408400Y-77664098D01*
X160408400Y-78081702D01*
X160489870Y-78491281D01*
X160649680Y-78877097D01*
X160881688Y-79224321D01*
X161176979Y-79519612D01*
X161524203Y-79751620D01*
X161910019Y-79911430D01*
X162319598Y-79992900D01*
X162737202Y-79992900D01*
X163146781Y-79911430D01*
X163532597Y-79751620D01*
X163879821Y-79519612D01*
X164175112Y-79224321D01*
X164407120Y-78877097D01*
X164566930Y-78491281D01*
X164648400Y-78081702D01*
X164648400Y-77664098D01*
X164566930Y-77254519D01*
X164407120Y-76868703D01*
X164175112Y-76521479D01*
X163879821Y-76226188D01*
X163532597Y-75994180D01*
X163146781Y-75834370D01*
X162737202Y-75752900D01*
X162319598Y-75752900D01*
X161910019Y-75834370D01*
X161524203Y-75994180D01*
X161176979Y-76226188D01*
X160881688Y-76521479D01*
X160649680Y-76868703D01*
X160489870Y-77254519D01*
X160408400Y-77664098D01*
X156029303Y-77664098D01*
X158087149Y-75606252D01*
X158184071Y-75526711D01*
X158501481Y-75139946D01*
X158737338Y-74698689D01*
X158760351Y-74622826D01*
X158882578Y-74219897D01*
X158931619Y-73721970D01*
X158919330Y-73597196D01*
X158919330Y-71305775D01*
X158936373Y-71280268D01*
X159153884Y-70755152D01*
X159264770Y-70197691D01*
X159264770Y-69629309D01*
X159153884Y-69071848D01*
X158936373Y-68546732D01*
X158620597Y-68074139D01*
X158218691Y-67672233D01*
X157746098Y-67356457D01*
X157220982Y-67138946D01*
X156663521Y-67028060D01*
X156095139Y-67028060D01*
X155537678Y-67138946D01*
X155012562Y-67356457D01*
X154539969Y-67672233D01*
X154138063Y-68074139D01*
X153822287Y-68546732D01*
X153604776Y-69071848D01*
X153493890Y-69629309D01*
X153493890Y-70197691D01*
X153604776Y-70755152D01*
X153822287Y-71280268D01*
X153839330Y-71305775D01*
X153839331Y-72669867D01*
X150344123Y-76165076D01*
X150106250Y-76454925D01*
X149913800Y-76814972D01*
X149913800Y-73299728D01*
X143543800Y-73299728D01*
X143543800Y-88726871D01*
X149489028Y-88726871D01*
X149042680Y-89173219D01*
X148945759Y-89252760D01*
X148628349Y-89639525D01*
X148494146Y-89890600D01*
X146179229Y-89890600D01*
X145806073Y-89927353D01*
X145327281Y-90072592D01*
X144886024Y-90308449D01*
X144499259Y-90625859D01*
X144181849Y-91012624D01*
X143945992Y-91453881D01*
X143800753Y-91932673D01*
X143751711Y-92430600D01*
X143800753Y-92928527D01*
X143945992Y-93407319D01*
X144181849Y-93848576D01*
X144499259Y-94235341D01*
X144886024Y-94552751D01*
X145327281Y-94788608D01*
X145806073Y-94933847D01*
X146179229Y-94970600D01*
X148376198Y-94970600D01*
X148866213Y-95460615D01*
X148945758Y-95557541D01*
X149042684Y-95637086D01*
X149974301Y-96568704D01*
X149974300Y-133847298D01*
X149455599Y-134366000D01*
X148435488Y-134366000D01*
X148509353Y-134187674D01*
X148564500Y-133910435D01*
X148564500Y-133627765D01*
X148509353Y-133350526D01*
X148401180Y-133089373D01*
X148244137Y-132854341D01*
X148044259Y-132654463D01*
X147811741Y-132499100D01*
X148044259Y-132343737D01*
X148244137Y-132143859D01*
X148401180Y-131908827D01*
X148509353Y-131647674D01*
X148564500Y-131370435D01*
X148564500Y-131087765D01*
X148509353Y-130810526D01*
X148401180Y-130549373D01*
X148244137Y-130314341D01*
X148044259Y-130114463D01*
X147811741Y-129959100D01*
X148044259Y-129803737D01*
X148244137Y-129603859D01*
X148401180Y-129368827D01*
X148509353Y-129107674D01*
X148564500Y-128830435D01*
X148564500Y-128547765D01*
X148509353Y-128270526D01*
X148401180Y-128009373D01*
X148244137Y-127774341D01*
X148044259Y-127574463D01*
X147811741Y-127419100D01*
X148044259Y-127263737D01*
X148244137Y-127063859D01*
X148401180Y-126828827D01*
X148509353Y-126567674D01*
X148564500Y-126290435D01*
X148564500Y-126007765D01*
X148509353Y-125730526D01*
X148401180Y-125469373D01*
X148244137Y-125234341D01*
X148044259Y-125034463D01*
X147811741Y-124879100D01*
X148044259Y-124723737D01*
X148244137Y-124523859D01*
X148401180Y-124288827D01*
X148509353Y-124027674D01*
X148564500Y-123750435D01*
X148564500Y-123467765D01*
X148509353Y-123190526D01*
X148401180Y-122929373D01*
X148244137Y-122694341D01*
X148044259Y-122494463D01*
X147811741Y-122339100D01*
X148044259Y-122183737D01*
X148244137Y-121983859D01*
X148401180Y-121748827D01*
X148509353Y-121487674D01*
X148564500Y-121210435D01*
X148564500Y-120927765D01*
X148509353Y-120650526D01*
X148401180Y-120389373D01*
X148244137Y-120154341D01*
X148044259Y-119954463D01*
X147811741Y-119799100D01*
X148044259Y-119643737D01*
X148244137Y-119443859D01*
X148401180Y-119208827D01*
X148509353Y-118947674D01*
X148564500Y-118670435D01*
X148564500Y-118387765D01*
X148509353Y-118110526D01*
X148401180Y-117849373D01*
X148244137Y-117614341D01*
X148044259Y-117414463D01*
X147811741Y-117259100D01*
X148044259Y-117103737D01*
X148244137Y-116903859D01*
X148401180Y-116668827D01*
X148509353Y-116407674D01*
X148564500Y-116130435D01*
X148564500Y-115847765D01*
X148509353Y-115570526D01*
X148401180Y-115309373D01*
X148244137Y-115074341D01*
X148044259Y-114874463D01*
X147811741Y-114719100D01*
X148044259Y-114563737D01*
X148244137Y-114363859D01*
X148401180Y-114128827D01*
X148509353Y-113867674D01*
X148564500Y-113590435D01*
X148564500Y-113307765D01*
X148509353Y-113030526D01*
X148401180Y-112769373D01*
X148244137Y-112534341D01*
X148044259Y-112334463D01*
X147811741Y-112179100D01*
X148044259Y-112023737D01*
X148244137Y-111823859D01*
X148401180Y-111588827D01*
X148509353Y-111327674D01*
X148564500Y-111050435D01*
X148564500Y-110767765D01*
X148509353Y-110490526D01*
X148401180Y-110229373D01*
X148244137Y-109994341D01*
X148044259Y-109794463D01*
X147811741Y-109639100D01*
X148044259Y-109483737D01*
X148244137Y-109283859D01*
X148401180Y-109048827D01*
X148509353Y-108787674D01*
X148564500Y-108510435D01*
X148564500Y-108227765D01*
X148509353Y-107950526D01*
X148401180Y-107689373D01*
X148244137Y-107454341D01*
X148044259Y-107254463D01*
X147809227Y-107097420D01*
X147798635Y-107093033D01*
X147984631Y-106981485D01*
X148193019Y-106792514D01*
X148360537Y-106566520D01*
X148480746Y-106312187D01*
X148521404Y-106178139D01*
X148399415Y-105956100D01*
X147256500Y-105956100D01*
X147256500Y-105976100D01*
X147002500Y-105976100D01*
X147002500Y-105956100D01*
X146982500Y-105956100D01*
X146982500Y-105702100D01*
X147002500Y-105702100D01*
X147002500Y-105682100D01*
X147256500Y-105682100D01*
X147256500Y-105702100D01*
X148399415Y-105702100D01*
X148521404Y-105480061D01*
X148480746Y-105346013D01*
X148360537Y-105091680D01*
X148193019Y-104865686D01*
X147984631Y-104676715D01*
X147798635Y-104565167D01*
X147809227Y-104560780D01*
X148044259Y-104403737D01*
X148244137Y-104203859D01*
X148401180Y-103968827D01*
X148509353Y-103707674D01*
X148564500Y-103430435D01*
X148564500Y-103147765D01*
X148509353Y-102870526D01*
X148401180Y-102609373D01*
X148244137Y-102374341D01*
X148044259Y-102174463D01*
X147811741Y-102019100D01*
X148044259Y-101863737D01*
X148244137Y-101663859D01*
X148401180Y-101428827D01*
X148509353Y-101167674D01*
X148564500Y-100890435D01*
X148564500Y-100607765D01*
X148509353Y-100330526D01*
X148401180Y-100069373D01*
X148244137Y-99834341D01*
X148045539Y-99635743D01*
X148053982Y-99634912D01*
X148173680Y-99598602D01*
X148283994Y-99539637D01*
X148380685Y-99460285D01*
X148460037Y-99363594D01*
X148519002Y-99253280D01*
X148555312Y-99133582D01*
X148567572Y-99009100D01*
X148567572Y-97409100D01*
X148555312Y-97284618D01*
X148519002Y-97164920D01*
X148460037Y-97054606D01*
X148380685Y-96957915D01*
X148283994Y-96878563D01*
X148173680Y-96819598D01*
X148053982Y-96783288D01*
X147929500Y-96771028D01*
X146329500Y-96771028D01*
X146205018Y-96783288D01*
X146085320Y-96819598D01*
X145975006Y-96878563D01*
X145878315Y-96957915D01*
X145798963Y-97054606D01*
X145739998Y-97164920D01*
X145703688Y-97284618D01*
X145691428Y-97409100D01*
X145691428Y-99009100D01*
X145703688Y-99133582D01*
X145739998Y-99253280D01*
X145798963Y-99363594D01*
X145878315Y-99460285D01*
X145975006Y-99539637D01*
X146085320Y-99598602D01*
X146205018Y-99634912D01*
X146213461Y-99635743D01*
X146014863Y-99834341D01*
X145857820Y-100069373D01*
X145749647Y-100330526D01*
X145694500Y-100607765D01*
X145694500Y-100890435D01*
X145749647Y-101167674D01*
X145857820Y-101428827D01*
X146014863Y-101663859D01*
X146214741Y-101863737D01*
X146447259Y-102019100D01*
X146214741Y-102174463D01*
X146014863Y-102374341D01*
X145857820Y-102609373D01*
X145749647Y-102870526D01*
X145694500Y-103147765D01*
X145694500Y-103430435D01*
X145749647Y-103707674D01*
X145857820Y-103968827D01*
X146014863Y-104203859D01*
X146214741Y-104403737D01*
X146449773Y-104560780D01*
X146460365Y-104565167D01*
X146274369Y-104676715D01*
X146065981Y-104865686D01*
X145898463Y-105091680D01*
X145778254Y-105346013D01*
X145737596Y-105480061D01*
X145811112Y-105613871D01*
X143383000Y-103185760D01*
X143383000Y-86569922D01*
X143387915Y-86520020D01*
X143368298Y-86320849D01*
X143310202Y-86129332D01*
X143236412Y-85991281D01*
X143215860Y-85952830D01*
X143088896Y-85798124D01*
X143050133Y-85766312D01*
X141871600Y-84587780D01*
X141871600Y-84448285D01*
X141816453Y-84171046D01*
X141708280Y-83909893D01*
X141551237Y-83674861D01*
X141452600Y-83576224D01*
X141452600Y-82775996D01*
X141551237Y-82677359D01*
X141708280Y-82442327D01*
X141816453Y-82181174D01*
X141871600Y-81903935D01*
X141871600Y-81621265D01*
X141816453Y-81344026D01*
X141708280Y-81082873D01*
X141551237Y-80847841D01*
X141351359Y-80647963D01*
X141116327Y-80490920D01*
X140855174Y-80382747D01*
X140577935Y-80327600D01*
X140295265Y-80327600D01*
X140018026Y-80382747D01*
X139756873Y-80490920D01*
X139521841Y-80647963D01*
X139321963Y-80847841D01*
X139164920Y-81082873D01*
X139056747Y-81344026D01*
X139001600Y-81621265D01*
X139001600Y-81903935D01*
X139056747Y-82181174D01*
X139164920Y-82442327D01*
X139321963Y-82677359D01*
X139420600Y-82775996D01*
X139420601Y-83576223D01*
X139321963Y-83674861D01*
X139164920Y-83909893D01*
X139056747Y-84171046D01*
X139001600Y-84448285D01*
X139001600Y-84730955D01*
X139056747Y-85008194D01*
X139164920Y-85269347D01*
X139321963Y-85504379D01*
X139521841Y-85704257D01*
X139756873Y-85861300D01*
X140018026Y-85969473D01*
X140295265Y-86024620D01*
X140434760Y-86024620D01*
X141351001Y-86940862D01*
X141351001Y-88566729D01*
X141285460Y-88444110D01*
X141190306Y-88328165D01*
X141158496Y-88289404D01*
X141119733Y-88257592D01*
X138348200Y-85486060D01*
X138348200Y-85220238D01*
X138288635Y-84920782D01*
X138171792Y-84638700D01*
X138002164Y-84384832D01*
X137786268Y-84168936D01*
X137532400Y-83999308D01*
X137250318Y-83882465D01*
X136950862Y-83822900D01*
X136645538Y-83822900D01*
X136346082Y-83882465D01*
X136064000Y-83999308D01*
X135810132Y-84168936D01*
X135594236Y-84384832D01*
X135424608Y-84638700D01*
X135307765Y-84920782D01*
X135248200Y-85220238D01*
X134135902Y-85220238D01*
X142958692Y-76397449D01*
X142997455Y-76365637D01*
X143124419Y-76210931D01*
X143218761Y-76034428D01*
X143276857Y-75842912D01*
X143291559Y-75693643D01*
X143291559Y-75693642D01*
X143296474Y-75643741D01*
X143291559Y-75593839D01*
X143291559Y-72584779D01*
X143333578Y-72542760D01*
X143684346Y-72688054D01*
X144241807Y-72798940D01*
X144810189Y-72798940D01*
X145367650Y-72688054D01*
X145892766Y-72470543D01*
X146365359Y-72154767D01*
X146580972Y-71939154D01*
X148606615Y-71939154D01*
X148852819Y-72331562D01*
X149355301Y-72597213D01*
X149899953Y-72759732D01*
X150465844Y-72812871D01*
X151031231Y-72754589D01*
X151574383Y-72587126D01*
X152052509Y-72331562D01*
X152298713Y-71939154D01*
X150452664Y-70093105D01*
X148606615Y-71939154D01*
X146580972Y-71939154D01*
X146767265Y-71752861D01*
X147083041Y-71280268D01*
X147300552Y-70755152D01*
X147411438Y-70197691D01*
X147411438Y-69926680D01*
X147553293Y-69926680D01*
X147611575Y-70492067D01*
X147779038Y-71035219D01*
X148034602Y-71513345D01*
X148427010Y-71759549D01*
X150273059Y-69913500D01*
X150632269Y-69913500D01*
X152478318Y-71759549D01*
X152870726Y-71513345D01*
X153136377Y-71010863D01*
X153298896Y-70466211D01*
X153352035Y-69900320D01*
X153293753Y-69334933D01*
X153126290Y-68791781D01*
X152870726Y-68313655D01*
X152478318Y-68067451D01*
X150632269Y-69913500D01*
X150273059Y-69913500D01*
X148427010Y-68067451D01*
X148034602Y-68313655D01*
X147768951Y-68816137D01*
X147606432Y-69360789D01*
X147553293Y-69926680D01*
X147411438Y-69926680D01*
X147411438Y-69629309D01*
X147300552Y-69071848D01*
X147083041Y-68546732D01*
X146767265Y-68074139D01*
X146580972Y-67887846D01*
X148606615Y-67887846D01*
X150452664Y-69733895D01*
X152298713Y-67887846D01*
X152052509Y-67495438D01*
X151550027Y-67229787D01*
X151005375Y-67067268D01*
X150439484Y-67014129D01*
X149874097Y-67072411D01*
X149330945Y-67239874D01*
X148852819Y-67495438D01*
X148606615Y-67887846D01*
X146580972Y-67887846D01*
X146365359Y-67672233D01*
X145892766Y-67356457D01*
X145367650Y-67138946D01*
X144810189Y-67028060D01*
X144241807Y-67028060D01*
X143684346Y-67138946D01*
X143159230Y-67356457D01*
X142686637Y-67672233D01*
X142284731Y-68074139D01*
X141968955Y-68546732D01*
X141751444Y-69071848D01*
X141640558Y-69629309D01*
X141640558Y-70197691D01*
X141751444Y-70755152D01*
X141896738Y-71105920D01*
X141592427Y-71410231D01*
X141553664Y-71442043D01*
X141426700Y-71596749D01*
X141343257Y-71752861D01*
X141332358Y-71773252D01*
X141274261Y-71964769D01*
X141254644Y-72163939D01*
X141259560Y-72213851D01*
X141259560Y-72974969D01*
X141174020Y-72911563D01*
X140919687Y-72791354D01*
X140785639Y-72750696D01*
X140563600Y-72872685D01*
X140563600Y-74015600D01*
X140583600Y-74015600D01*
X140583600Y-74269600D01*
X140563600Y-74269600D01*
X140563600Y-75412515D01*
X140785639Y-75534504D01*
X140919687Y-75493846D01*
X141050388Y-75432071D01*
X138321210Y-78161249D01*
X138348200Y-78025562D01*
X138348200Y-77720238D01*
X138288635Y-77420782D01*
X138171792Y-77138700D01*
X138002164Y-76884832D01*
X137786268Y-76668936D01*
X137532400Y-76499308D01*
X137250318Y-76382465D01*
X136950862Y-76322900D01*
X136645538Y-76322900D01*
X136346082Y-76382465D01*
X136064000Y-76499308D01*
X135810132Y-76668936D01*
X135594236Y-76884832D01*
X135424608Y-77138700D01*
X135307765Y-77420782D01*
X135248200Y-77720238D01*
X135248200Y-78025562D01*
X135307765Y-78325018D01*
X135424608Y-78607100D01*
X135594236Y-78860968D01*
X135810132Y-79076864D01*
X136064000Y-79246492D01*
X136346082Y-79363335D01*
X136645538Y-79422900D01*
X136950862Y-79422900D01*
X137086549Y-79395910D01*
X129761201Y-86721259D01*
X129761201Y-81428839D01*
X136698400Y-74491640D01*
X139044691Y-74491640D01*
X139139530Y-74756481D01*
X139284215Y-74997731D01*
X139473186Y-75206119D01*
X139699180Y-75373637D01*
X139953513Y-75493846D01*
X140087561Y-75534504D01*
X140309600Y-75412515D01*
X140309600Y-74269600D01*
X139165976Y-74269600D01*
X139044691Y-74491640D01*
X136698400Y-74491640D01*
X137032026Y-74158015D01*
X137070789Y-74126203D01*
X137197753Y-73971497D01*
X137292095Y-73794994D01*
X137292530Y-73793560D01*
X139044691Y-73793560D01*
X139165976Y-74015600D01*
X140309600Y-74015600D01*
X140309600Y-72872685D01*
X140087561Y-72750696D01*
X139953513Y-72791354D01*
X139699180Y-72911563D01*
X139473186Y-73079081D01*
X139284215Y-73287469D01*
X139139530Y-73528719D01*
X139044691Y-73793560D01*
X137292530Y-73793560D01*
X137350191Y-73603478D01*
X137364893Y-73454209D01*
X137364893Y-73454208D01*
X137369808Y-73404307D01*
X137364893Y-73354405D01*
X137364893Y-72584779D01*
X137406912Y-72542760D01*
X137757680Y-72688054D01*
X138315141Y-72798940D01*
X138883523Y-72798940D01*
X139440984Y-72688054D01*
X139966100Y-72470543D01*
X140438693Y-72154767D01*
X140840599Y-71752861D01*
X141156375Y-71280268D01*
X141373886Y-70755152D01*
X141484772Y-70197691D01*
X141484772Y-69629309D01*
X141373886Y-69071848D01*
X141156375Y-68546732D01*
X140840599Y-68074139D01*
X140438693Y-67672233D01*
X139966100Y-67356457D01*
X139440984Y-67138946D01*
X138883523Y-67028060D01*
X138315141Y-67028060D01*
X137757680Y-67138946D01*
X137232564Y-67356457D01*
X136759971Y-67672233D01*
X136358065Y-68074139D01*
X136042289Y-68546732D01*
X135824778Y-69071848D01*
X135713892Y-69629309D01*
X135713892Y-70197691D01*
X135824778Y-70755152D01*
X135970072Y-71105920D01*
X135665761Y-71410231D01*
X135626998Y-71442043D01*
X135500034Y-71596749D01*
X135416591Y-71752861D01*
X135405692Y-71773252D01*
X135347595Y-71964769D01*
X135327978Y-72163939D01*
X135332894Y-72213850D01*
X135332893Y-72983466D01*
X128056757Y-80259603D01*
X128017994Y-80291415D01*
X127891029Y-80446121D01*
X127796687Y-80622624D01*
X127738591Y-80814140D01*
X127729063Y-80910875D01*
X127718974Y-81013311D01*
X127723889Y-81063213D01*
X127723889Y-81246348D01*
X127718974Y-81296250D01*
X127723889Y-81346151D01*
X127729202Y-81400094D01*
X127729202Y-83645726D01*
X127502397Y-83494180D01*
X127116581Y-83334370D01*
X126707002Y-83252900D01*
X126289398Y-83252900D01*
X125879819Y-83334370D01*
X125494003Y-83494180D01*
X125146779Y-83726188D01*
X124851488Y-84021479D01*
X124619480Y-84368703D01*
X124459670Y-84754519D01*
X124378200Y-85164098D01*
X123113000Y-85164098D01*
X123113000Y-77664098D01*
X124378200Y-77664098D01*
X124378200Y-78081702D01*
X124459670Y-78491281D01*
X124619480Y-78877097D01*
X124851488Y-79224321D01*
X125146779Y-79519612D01*
X125494003Y-79751620D01*
X125879819Y-79911430D01*
X126289398Y-79992900D01*
X126707002Y-79992900D01*
X127116581Y-79911430D01*
X127502397Y-79751620D01*
X127849621Y-79519612D01*
X128144912Y-79224321D01*
X128376920Y-78877097D01*
X128536730Y-78491281D01*
X128618200Y-78081702D01*
X128618200Y-77664098D01*
X128536730Y-77254519D01*
X128376920Y-76868703D01*
X128144912Y-76521479D01*
X127849621Y-76226188D01*
X127514200Y-76002067D01*
X127514200Y-72449040D01*
X129033741Y-70929500D01*
X129970330Y-70929500D01*
X130115623Y-71280268D01*
X130431399Y-71752861D01*
X130833305Y-72154767D01*
X131305898Y-72470543D01*
X131831014Y-72688054D01*
X132388475Y-72798940D01*
X132956857Y-72798940D01*
X133514318Y-72688054D01*
X134039434Y-72470543D01*
X134512027Y-72154767D01*
X134913933Y-71752861D01*
X135229709Y-71280268D01*
X135447220Y-70755152D01*
X135558106Y-70197691D01*
X135558106Y-69629309D01*
X135447220Y-69071848D01*
X135229709Y-68546732D01*
X134913933Y-68074139D01*
X134512027Y-67672233D01*
X134039434Y-67356457D01*
X133514318Y-67138946D01*
X132956857Y-67028060D01*
X132388475Y-67028060D01*
X131831014Y-67138946D01*
X131305898Y-67356457D01*
X130833305Y-67672233D01*
X130431399Y-68074139D01*
X130115623Y-68546732D01*
X129970330Y-68897500D01*
X128662793Y-68897500D01*
X128612899Y-68892586D01*
X128563005Y-68897500D01*
X128562998Y-68897500D01*
X128433077Y-68910296D01*
X128413728Y-68912202D01*
X128355632Y-68929826D01*
X128222213Y-68970298D01*
X128045710Y-69064640D01*
X127891004Y-69191604D01*
X127859192Y-69230367D01*
X125815068Y-71274492D01*
X125776305Y-71306304D01*
X125649341Y-71461010D01*
X125621368Y-71513345D01*
X125554999Y-71637513D01*
X125496902Y-71829030D01*
X125477285Y-72028200D01*
X125482201Y-72078112D01*
X125482200Y-76002066D01*
X125146779Y-76226188D01*
X124851488Y-76521479D01*
X124619480Y-76868703D01*
X124459670Y-77254519D01*
X124378200Y-77664098D01*
X123113000Y-77664098D01*
X123113000Y-61716475D01*
X124111000Y-61716475D01*
X124111000Y-62235525D01*
X124212261Y-62744601D01*
X124410893Y-63224141D01*
X124699262Y-63655715D01*
X125066285Y-64022738D01*
X125497859Y-64311107D01*
X125977399Y-64509739D01*
X126486475Y-64611000D01*
X127005525Y-64611000D01*
X127514601Y-64509739D01*
X127994141Y-64311107D01*
X128425715Y-64022738D01*
X128792738Y-63655715D01*
X129081107Y-63224141D01*
X129279739Y-62744601D01*
X129381000Y-62235525D01*
X129381000Y-61716475D01*
X130037666Y-61716475D01*
X130037666Y-62235525D01*
X130138927Y-62744601D01*
X130337559Y-63224141D01*
X130625928Y-63655715D01*
X130992951Y-64022738D01*
X131424525Y-64311107D01*
X131904065Y-64509739D01*
X132413141Y-64611000D01*
X132932191Y-64611000D01*
X133441267Y-64509739D01*
X133920807Y-64311107D01*
X134352381Y-64022738D01*
X134719404Y-63655715D01*
X135007773Y-63224141D01*
X135206405Y-62744601D01*
X135307666Y-62235525D01*
X135307666Y-61716475D01*
X135964332Y-61716475D01*
X135964332Y-62235525D01*
X136065593Y-62744601D01*
X136264225Y-63224141D01*
X136552594Y-63655715D01*
X136919617Y-64022738D01*
X137351191Y-64311107D01*
X137830731Y-64509739D01*
X138339807Y-64611000D01*
X138858857Y-64611000D01*
X139367933Y-64509739D01*
X139847473Y-64311107D01*
X140279047Y-64022738D01*
X140646070Y-63655715D01*
X140934439Y-63224141D01*
X141133071Y-62744601D01*
X141234332Y-62235525D01*
X141234332Y-61716475D01*
X141890998Y-61716475D01*
X141890998Y-62235525D01*
X141992259Y-62744601D01*
X142190891Y-63224141D01*
X142479260Y-63655715D01*
X142846283Y-64022738D01*
X143277857Y-64311107D01*
X143757397Y-64509739D01*
X144266473Y-64611000D01*
X144785523Y-64611000D01*
X145294599Y-64509739D01*
X145774139Y-64311107D01*
X146205713Y-64022738D01*
X146572736Y-63655715D01*
X146861105Y-63224141D01*
X147059737Y-62744601D01*
X147160998Y-62235525D01*
X147160998Y-61716475D01*
X147817664Y-61716475D01*
X147817664Y-62235525D01*
X147918925Y-62744601D01*
X148117557Y-63224141D01*
X148405926Y-63655715D01*
X148772949Y-64022738D01*
X149204523Y-64311107D01*
X149684063Y-64509739D01*
X150193139Y-64611000D01*
X150712189Y-64611000D01*
X151221265Y-64509739D01*
X151700805Y-64311107D01*
X152132379Y-64022738D01*
X152499402Y-63655715D01*
X152787771Y-63224141D01*
X152986403Y-62744601D01*
X153087664Y-62235525D01*
X153087664Y-61716475D01*
X153744330Y-61716475D01*
X153744330Y-62235525D01*
X153845591Y-62744601D01*
X154044223Y-63224141D01*
X154332592Y-63655715D01*
X154699615Y-64022738D01*
X155131189Y-64311107D01*
X155610729Y-64509739D01*
X156119805Y-64611000D01*
X156638855Y-64611000D01*
X157147931Y-64509739D01*
X157627471Y-64311107D01*
X158059045Y-64022738D01*
X158426068Y-63655715D01*
X158714437Y-63224141D01*
X158913069Y-62744601D01*
X159014330Y-62235525D01*
X159014330Y-61716475D01*
X159671000Y-61716475D01*
X159671000Y-62235525D01*
X159772261Y-62744601D01*
X159970893Y-63224141D01*
X160259262Y-63655715D01*
X160626285Y-64022738D01*
X161057859Y-64311107D01*
X161537399Y-64509739D01*
X162046475Y-64611000D01*
X162565525Y-64611000D01*
X163074601Y-64509739D01*
X163554141Y-64311107D01*
X163985715Y-64022738D01*
X164352738Y-63655715D01*
X164641107Y-63224141D01*
X164839739Y-62744601D01*
X164941000Y-62235525D01*
X164941000Y-61716475D01*
X164839739Y-61207399D01*
X164641107Y-60727859D01*
X164352738Y-60296285D01*
X163985715Y-59929262D01*
X163554141Y-59640893D01*
X163074601Y-59442261D01*
X162565525Y-59341000D01*
X162046475Y-59341000D01*
X161537399Y-59442261D01*
X161057859Y-59640893D01*
X160626285Y-59929262D01*
X160259262Y-60296285D01*
X159970893Y-60727859D01*
X159772261Y-61207399D01*
X159671000Y-61716475D01*
X159014330Y-61716475D01*
X158913069Y-61207399D01*
X158714437Y-60727859D01*
X158426068Y-60296285D01*
X158059045Y-59929262D01*
X157627471Y-59640893D01*
X157147931Y-59442261D01*
X156638855Y-59341000D01*
X156119805Y-59341000D01*
X155610729Y-59442261D01*
X155131189Y-59640893D01*
X154699615Y-59929262D01*
X154332592Y-60296285D01*
X154044223Y-60727859D01*
X153845591Y-61207399D01*
X153744330Y-61716475D01*
X153087664Y-61716475D01*
X152986403Y-61207399D01*
X152787771Y-60727859D01*
X152499402Y-60296285D01*
X152132379Y-59929262D01*
X151700805Y-59640893D01*
X151221265Y-59442261D01*
X150712189Y-59341000D01*
X150193139Y-59341000D01*
X149684063Y-59442261D01*
X149204523Y-59640893D01*
X148772949Y-59929262D01*
X148405926Y-60296285D01*
X148117557Y-60727859D01*
X147918925Y-61207399D01*
X147817664Y-61716475D01*
X147160998Y-61716475D01*
X147059737Y-61207399D01*
X146861105Y-60727859D01*
X146572736Y-60296285D01*
X146205713Y-59929262D01*
X145774139Y-59640893D01*
X145294599Y-59442261D01*
X144785523Y-59341000D01*
X144266473Y-59341000D01*
X143757397Y-59442261D01*
X143277857Y-59640893D01*
X142846283Y-59929262D01*
X142479260Y-60296285D01*
X142190891Y-60727859D01*
X141992259Y-61207399D01*
X141890998Y-61716475D01*
X141234332Y-61716475D01*
X141133071Y-61207399D01*
X140934439Y-60727859D01*
X140646070Y-60296285D01*
X140279047Y-59929262D01*
X139847473Y-59640893D01*
X139367933Y-59442261D01*
X138858857Y-59341000D01*
X138339807Y-59341000D01*
X137830731Y-59442261D01*
X137351191Y-59640893D01*
X136919617Y-59929262D01*
X136552594Y-60296285D01*
X136264225Y-60727859D01*
X136065593Y-61207399D01*
X135964332Y-61716475D01*
X135307666Y-61716475D01*
X135206405Y-61207399D01*
X135007773Y-60727859D01*
X134719404Y-60296285D01*
X134352381Y-59929262D01*
X133920807Y-59640893D01*
X133441267Y-59442261D01*
X132932191Y-59341000D01*
X132413141Y-59341000D01*
X131904065Y-59442261D01*
X131424525Y-59640893D01*
X130992951Y-59929262D01*
X130625928Y-60296285D01*
X130337559Y-60727859D01*
X130138927Y-61207399D01*
X130037666Y-61716475D01*
X129381000Y-61716475D01*
X129279739Y-61207399D01*
X129081107Y-60727859D01*
X128792738Y-60296285D01*
X128425715Y-59929262D01*
X127994141Y-59640893D01*
X127514601Y-59442261D01*
X127005525Y-59341000D01*
X126486475Y-59341000D01*
X125977399Y-59442261D01*
X125497859Y-59640893D01*
X125066285Y-59929262D01*
X124699262Y-60296285D01*
X124410893Y-60727859D01*
X124212261Y-61207399D01*
X124111000Y-61716475D01*
X123113000Y-61716475D01*
X123113000Y-58343000D01*
X165939000Y-58343000D01*
X165939001Y-143841000D01*
M02*
