G04 #@! TF.GenerationSoftware,KiCad,Pcbnew,5.1.5+dfsg1-2build2*
G04 #@! TF.CreationDate,2022-04-07T15:16:09-04:00*
G04 #@! TF.ProjectId,traffic-vest_controller,74726166-6669-4632-9d76-6573745f636f,rev?*
G04 #@! TF.SameCoordinates,Original*
G04 #@! TF.FileFunction,Soldermask,Bot*
G04 #@! TF.FilePolarity,Negative*
%FSLAX46Y46*%
G04 Gerber Fmt 4.6, Leading zero omitted, Abs format (unit mm)*
G04 Created by KiCad (PCBNEW 5.1.5+dfsg1-2build2) date 2022-04-07 15:16:09*
%MOMM*%
%LPD*%
G04 APERTURE LIST*
%ADD10O,1.600000X1.600000*%
%ADD11C,1.600000*%
%ADD12C,4.500880*%
%ADD13C,2.970000*%
%ADD14C,1.830000*%
%ADD15R,1.600000X1.600000*%
%ADD16C,4.000000*%
%ADD17C,2.100000*%
%ADD18C,1.998980*%
G04 APERTURE END LIST*
D10*
X140436600Y-74142600D03*
D11*
X140436600Y-81762600D03*
D10*
X140436600Y-92209620D03*
D11*
X140436600Y-84589620D03*
D10*
X140436600Y-133997700D03*
D11*
X140436600Y-126377700D03*
D10*
X140436600Y-115930680D03*
D11*
X140436600Y-123550680D03*
D10*
X140436600Y-113103660D03*
D11*
X140436600Y-105483660D03*
D10*
X140436600Y-95036640D03*
D11*
X140436600Y-102656640D03*
D10*
X156235400Y-92405200D03*
D11*
X163855400Y-92405200D03*
D10*
X146304000Y-92430600D03*
D11*
X153924000Y-92430600D03*
D12*
X150452664Y-69913500D03*
X156379330Y-69913500D03*
X138599332Y-69913500D03*
X144525998Y-69913500D03*
X132672666Y-69913500D03*
D13*
X126498200Y-77872900D03*
X126498200Y-85372900D03*
D14*
X136798200Y-85372900D03*
X136798200Y-77872900D03*
D13*
X162528400Y-85372900D03*
X162528400Y-77872900D03*
D14*
X152228400Y-77872900D03*
X152228400Y-85372900D03*
D13*
X126498200Y-117992200D03*
X126498200Y-125492200D03*
D14*
X136798200Y-125492200D03*
X136798200Y-117992200D03*
D13*
X126498200Y-97835550D03*
X126498200Y-105335550D03*
D14*
X136798200Y-105335550D03*
X136798200Y-97835550D03*
D15*
X147129500Y-98209100D03*
D10*
X162369500Y-131229100D03*
X147129500Y-100749100D03*
X162369500Y-128689100D03*
X147129500Y-103289100D03*
X162369500Y-126149100D03*
X147129500Y-105829100D03*
X162369500Y-123609100D03*
X147129500Y-108369100D03*
X162369500Y-121069100D03*
X147129500Y-110909100D03*
X162369500Y-118529100D03*
X147129500Y-113449100D03*
X162369500Y-115989100D03*
X147129500Y-115989100D03*
X162369500Y-113449100D03*
X147129500Y-118529100D03*
X162369500Y-110909100D03*
X147129500Y-121069100D03*
X162369500Y-108369100D03*
X147129500Y-123609100D03*
X162369500Y-105829100D03*
X147129500Y-126149100D03*
X162369500Y-103289100D03*
X147129500Y-128689100D03*
X162369500Y-100749100D03*
X147129500Y-131229100D03*
X162369500Y-98209100D03*
X147129500Y-133769100D03*
X162369500Y-133769100D03*
D16*
X162306000Y-140208000D03*
X126746000Y-140208000D03*
X126746000Y-61976000D03*
X162306000Y-61976000D03*
X144525998Y-61976000D03*
X150452664Y-61976000D03*
X138599332Y-61976000D03*
X132672666Y-61976000D03*
X156379330Y-61976000D03*
D17*
X142900400Y-141986000D03*
X138137900Y-141986000D03*
X133375400Y-141986000D03*
D18*
X133375400Y-136906000D03*
X138137900Y-136906000D03*
X142900400Y-136906000D03*
M02*
